<svg width="184" height="183" viewBox="0 0 184 183" fill="none" xmlns="http://www.w3.org/2000/svg">
<g opacity="0.5">
<path d="M92.0001 149.691C126.549 149.691 154.557 138.703 154.557 125.15C154.557 111.597 126.549 100.609 92.0001 100.609C57.4507 100.609 29.4429 111.597 29.4429 125.15C29.4429 138.703 57.4507 149.691 92.0001 149.691Z" fill="#F9FAFB"/>
<path d="M122.712 121.801L125.606 125.749H71.6551L68.7593 121.801H122.712Z" fill="#D0D5DD"/>
<path d="M125.606 126.13H71.6549C71.5329 126.13 71.4193 126.072 71.3482 125.974L68.4524 122.028C68.3676 121.912 68.3541 121.758 68.4202 121.629C68.4846 121.501 68.6167 121.421 68.7608 121.421H122.714C122.836 121.421 122.949 121.479 123.02 121.577L125.916 125.523C126.001 125.638 126.014 125.793 125.948 125.921C125.882 126.048 125.75 126.13 125.606 126.13ZM71.848 125.367H124.855L122.519 122.183H69.5114L71.848 125.367Z" fill="#F9FAFB"/>
<path d="M136.005 38.4521L138.899 42.4002L125.606 125.748L122.712 121.8L136.005 38.4521Z" fill="#D0D5DD"/>
<path d="M125.606 126.13C125.486 126.13 125.372 126.074 125.299 125.974L122.404 122.027C122.343 121.946 122.319 121.843 122.334 121.741L135.627 38.3929C135.651 38.2404 135.764 38.1184 135.913 38.0828C136.062 38.0472 136.22 38.1031 136.31 38.2285L139.206 42.1749C139.267 42.2562 139.29 42.3596 139.275 42.4613L125.982 125.809C125.958 125.962 125.845 126.084 125.696 126.119C125.667 126.126 125.637 126.13 125.606 126.13ZM123.114 121.704L125.374 124.786L138.497 42.4968L136.237 39.4146L123.114 121.704Z" fill="#F9FAFB"/>
<path d="M136.005 38.4521L122.712 121.8H68.7593L69.6082 116.475H117.507L129.951 38.4521H136.005Z" fill="#F7F9FC"/>
<path d="M122.712 122.182H68.7592C68.6473 122.182 68.5423 122.132 68.4694 122.048C68.3965 121.963 68.366 121.851 68.383 121.741L69.2319 116.414C69.2607 116.229 69.4217 116.092 69.6081 116.092H117.181L129.573 38.3913C129.602 38.2066 129.763 38.0693 129.949 38.0693H136.003C136.115 38.0693 136.22 38.1185 136.293 38.2032C136.366 38.2879 136.396 38.3998 136.379 38.5099L123.086 121.858C123.058 122.046 122.898 122.182 122.712 122.182ZM69.2065 121.419H122.387L135.558 38.8335H130.276L117.884 116.534C117.856 116.719 117.695 116.856 117.508 116.856H69.9334L69.2065 121.419Z" fill="#F9FAFB"/>
<path d="M57.9759 122.776L60.87 126.723L48.365 138.501L45.4692 134.554L57.9759 122.776Z" fill="#D0D5DD"/>
<path d="M48.3651 138.882C48.3532 138.882 48.3413 138.882 48.3295 138.881C48.221 138.871 48.1211 138.815 48.0567 138.727L45.1609 134.78C45.0474 134.624 45.066 134.409 45.2066 134.277L57.7116 122.499C57.7913 122.424 57.8997 122.387 58.0082 122.397C58.1166 122.407 58.2166 122.463 58.281 122.551L61.1768 126.498C61.2903 126.654 61.2717 126.869 61.131 127.001L48.626 138.779C48.5548 138.845 48.4617 138.882 48.3651 138.882ZM45.9759 134.601L48.4159 137.928L60.3617 126.677L57.9217 123.349L45.9759 134.601Z" fill="#F9FAFB"/>
<path d="M69.6083 116.475L68.7594 121.8L66.726 134.554L57.9759 122.776L45.4692 134.554L48.3532 116.475H69.6083Z" fill="#E4E7EC"/>
<path d="M66.726 134.936C66.6074 134.936 66.4922 134.88 66.4193 134.782L57.9251 123.347L45.7319 134.831C45.6133 134.942 45.437 134.966 45.2913 134.89C45.1473 134.814 45.0676 134.654 45.0931 134.493L47.977 116.414C48.0058 116.229 48.1668 116.092 48.3532 116.092H69.6083C69.7201 116.092 69.8252 116.141 69.898 116.226C69.9709 116.31 70.0014 116.422 69.9845 116.532L67.1005 134.612C67.0768 134.763 66.9633 134.887 66.8141 134.922C66.7853 134.931 66.7548 134.936 66.726 134.936ZM57.9759 122.395C57.9878 122.395 57.998 122.395 58.0098 122.397C58.1183 122.407 58.2165 122.461 58.2826 122.549L66.4939 133.6L69.1643 116.856H48.6785L46.0216 133.511L57.7133 122.5C57.7845 122.431 57.8776 122.395 57.9759 122.395Z" fill="#F9FAFB"/>
<path d="M69.6083 116.475L68.7594 121.8L66.7261 134.554L69.6202 138.501L71.6552 125.748L72.5041 120.421L69.6083 116.475Z" fill="#D0D5DD"/>
<path d="M69.62 138.882C69.4997 138.882 69.3861 138.826 69.3133 138.726L66.4192 134.78C66.3582 134.698 66.3345 134.595 66.3497 134.495L69.2337 116.415C69.2574 116.263 69.3709 116.141 69.52 116.105C69.6691 116.07 69.8267 116.126 69.9165 116.251L72.8123 120.197C72.8733 120.279 72.897 120.382 72.8818 120.484L69.9978 138.563C69.9741 138.716 69.8606 138.838 69.7115 138.874C69.681 138.879 69.6505 138.882 69.62 138.882ZM67.1275 134.456L69.3878 137.538L72.1023 120.518L69.842 117.435L67.1275 134.456Z" fill="#F9FAFB"/>
<path d="M130.8 33.127L129.951 38.4526L117.507 116.475H69.6084H48.3533H42.2974L55.5903 33.127H130.8Z" fill="#D0D5DD"/>
<path d="M90.7735 95.2666C91.2582 95.2666 91.5903 95.6445 91.5157 96.1121C91.4412 96.5798 90.9887 96.9594 90.5041 96.9594H61.9714C61.4868 96.9594 61.1547 96.5798 61.2292 96.1121C61.3038 95.6445 61.7562 95.2666 62.2408 95.2666H90.7735Z" fill="#98A2B3"/>
<path d="M90.5024 97.341H61.9714C61.6257 97.341 61.3055 97.1987 61.0954 96.953C60.8852 96.7073 60.8005 96.387 60.8531 96.0532C60.9564 95.3992 61.5664 94.8857 62.2408 94.8857H90.7736C91.1209 94.8857 91.4395 95.0281 91.6513 95.2738C91.8597 95.5195 91.9461 95.838 91.8919 96.1718C91.7868 96.8276 91.1768 97.341 90.5024 97.341ZM62.2408 95.6482C61.9426 95.6482 61.6511 95.8889 61.6054 96.1718C61.5867 96.2837 61.6122 96.3836 61.6749 96.4565C61.7409 96.5344 61.846 96.5768 61.9714 96.5768H90.5041C90.8024 96.5768 91.0938 96.3362 91.1396 96.0515C91.1582 95.9397 91.1345 95.8414 91.0718 95.7686C91.0057 95.6906 90.9006 95.6482 90.7753 95.6482H62.2408Z" fill="#98A2B3"/>
<path d="M106.029 84.6104C106.513 84.6104 106.846 84.9882 106.771 85.4559C106.696 85.9235 106.244 86.3031 105.759 86.3031H63.6711C63.1865 86.3031 62.8544 85.9235 62.9289 85.4559C63.0035 84.9882 63.4559 84.6104 63.9405 84.6104H106.029Z" fill="#98A2B3"/>
<path d="M105.759 86.6847H63.6711C63.3254 86.6847 63.0052 86.5424 62.7951 86.2967C62.585 86.051 62.5002 85.7308 62.5528 85.397C62.6578 84.7429 63.2661 84.2295 63.9405 84.2295H106.029C106.376 84.2295 106.695 84.3718 106.907 84.6175C107.115 84.8632 107.201 85.1818 107.147 85.5156C107.042 86.1713 106.432 86.6847 105.759 86.6847ZM63.9405 84.992C63.6423 84.992 63.3508 85.2326 63.3051 85.5156C63.2865 85.6274 63.3119 85.7274 63.3746 85.8002C63.4406 85.8782 63.5457 85.9205 63.6711 85.9205H105.759C106.058 85.9205 106.349 85.6799 106.395 85.3953C106.413 85.2834 106.39 85.1852 106.327 85.1123C106.261 85.0344 106.156 84.992 106.031 84.992H63.9405Z" fill="#98A2B3"/>
<path d="M107.728 73.9541C108.213 73.9541 108.545 74.3337 108.47 74.7996C108.396 75.2673 107.943 75.6469 107.459 75.6469H65.3703C64.8857 75.6469 64.5536 75.2673 64.6281 74.7996C64.7027 74.3337 65.1551 73.9541 65.6397 73.9541H107.728Z" fill="#98A2B3"/>
<path d="M107.459 76.0285H65.3703C65.0246 76.0285 64.7044 75.8862 64.4943 75.6405C64.2842 75.3948 64.1994 75.0745 64.252 74.7407C64.357 74.0867 64.9653 73.5732 65.6397 73.5732H107.728C108.074 73.5732 108.394 73.7156 108.604 73.9613C108.812 74.207 108.899 74.5255 108.846 74.8593C108.741 75.5151 108.131 76.0285 107.459 76.0285ZM65.6397 74.3357C65.3415 74.3357 65.0501 74.5764 65.0043 74.861C64.9857 74.9729 65.0111 75.0728 65.0738 75.1457C65.1399 75.2236 65.2449 75.266 65.3703 75.266H107.459C107.757 75.266 108.048 75.0254 108.094 74.7407C108.111 74.6289 108.087 74.5306 108.025 74.4577C107.958 74.3798 107.853 74.3374 107.728 74.3374H65.6397V74.3357Z" fill="#98A2B3"/>
<path d="M109.428 63.2988C109.912 63.2988 110.244 63.6784 110.17 64.1461C110.095 64.612 109.643 64.9916 109.158 64.9916H67.07C66.5854 64.9916 66.2533 64.612 66.3278 64.1461C66.4024 63.6784 66.8548 63.2988 67.3394 63.2988H109.428Z" fill="#98A2B3"/>
<path d="M109.158 65.3725H67.0699C66.7242 65.3725 66.404 65.2302 66.1938 64.9845C65.9854 64.7388 65.899 64.4202 65.9515 64.0864C66.0566 63.4307 66.6649 62.9189 67.3393 62.9189H109.428C109.773 62.9189 110.094 63.0613 110.304 63.307C110.514 63.5527 110.598 63.8712 110.546 64.2067C110.441 64.8591 109.831 65.3725 109.158 65.3725ZM67.3393 63.6797C67.0411 63.6797 66.7496 63.9204 66.7039 64.205C66.6852 64.3169 66.7106 64.4151 66.7733 64.488C66.8394 64.5659 66.9445 64.6083 67.0699 64.6083H109.158C109.456 64.6083 109.748 64.3677 109.794 64.0847C109.812 63.9729 109.787 63.8729 109.724 63.8001C109.658 63.7221 109.553 63.6797 109.428 63.6797H67.3393Z" fill="#98A2B3"/>
<path d="M111.127 52.6416C111.612 52.6416 111.944 53.0212 111.869 53.4888C111.795 53.9565 111.342 54.3344 110.858 54.3344H68.7692C68.2846 54.3344 67.9525 53.9565 68.0271 53.4888C68.1016 53.0212 68.554 52.6416 69.0386 52.6416H111.127Z" fill="#98A2B3"/>
<path d="M110.858 54.716H68.7694C68.422 54.716 68.1035 54.5737 67.8917 54.328C67.6833 54.0823 67.5968 53.7637 67.6511 53.4299C67.7561 52.7742 68.3661 52.2607 69.0388 52.2607H111.127C111.473 52.2607 111.793 52.4031 112.003 52.6488C112.213 52.8945 112.298 53.2147 112.245 53.5485C112.14 54.2026 111.53 54.716 110.858 54.716ZM69.0388 53.0232C68.7406 53.0232 68.4492 53.2638 68.4034 53.5485C68.3848 53.6603 68.4085 53.7586 68.4712 53.8315C68.5373 53.9094 68.6423 53.9518 68.7677 53.9518H110.856C111.154 53.9518 111.446 53.7112 111.491 53.4282C111.51 53.3164 111.485 53.2164 111.422 53.1435C111.356 53.0656 111.251 53.0232 111.125 53.0232H69.0388Z" fill="#98A2B3"/>
<path d="M130.8 33.127L129.951 38.4526L117.507 116.475L120.403 120.421L132.845 42.4006L133.696 37.0733L130.8 33.127Z" fill="#E4E7EC"/>
<path d="M120.402 120.802C120.282 120.802 120.169 120.746 120.096 120.647L117.2 116.7C117.139 116.619 117.115 116.515 117.13 116.414L130.423 33.0657C130.447 32.9132 130.561 32.7912 130.71 32.7557C130.859 32.7201 131.016 32.776 131.106 32.9014L134.002 36.8477C134.063 36.9291 134.087 37.0324 134.072 37.1341L120.779 120.482C120.755 120.635 120.641 120.757 120.492 120.792C120.462 120.799 120.431 120.802 120.402 120.802ZM117.908 116.377L120.17 119.459L133.294 37.1697L131.033 34.0875L117.908 116.377Z" fill="#F9FAFB"/>
<path d="M117.507 116.475H69.6084H44.8729H42.2974L45.1932 120.421H47.767H72.5042H120.403L117.507 116.475Z" fill="#D0D5DD"/>
<path d="M120.403 120.803H45.193C45.071 120.803 44.9574 120.745 44.8863 120.647L41.9905 116.7C41.9057 116.585 41.8922 116.431 41.9583 116.302C42.0226 116.173 42.1548 116.094 42.2988 116.094H117.508C117.63 116.094 117.744 116.151 117.815 116.25L120.711 120.196C120.796 120.311 120.809 120.465 120.743 120.594C120.677 120.721 120.547 120.803 120.403 120.803ZM45.3861 120.04H119.65L117.314 116.856H43.0495L45.3861 120.04Z" fill="#F9FAFB"/>
<path d="M145.218 48.4326L145.587 50.7354C145.809 52.1163 146.756 53.1974 148.119 53.6227L150.396 54.3327L147.893 55.0426C146.395 55.468 145.103 56.549 144.44 57.93L143.337 60.2327L142.966 57.93C142.744 56.549 141.797 55.468 140.434 55.0426L138.159 54.3327L140.66 53.6227C142.158 53.1974 143.45 52.1163 144.113 50.7354L145.218 48.4326Z" fill="#D0D5DD"/>
<path d="M48.4968 34.999L48.7797 36.7646C48.9509 37.8237 49.6761 38.6522 50.7216 38.9793L52.4668 39.5232L50.547 40.0688C49.3982 40.3941 48.407 41.2227 47.8986 42.2817L47.0531 44.049L46.7701 42.2817C46.599 41.2227 45.8738 40.3958 44.8283 40.0688L43.083 39.5232L45.0011 38.9793C46.15 38.6539 47.1412 37.8237 47.6495 36.7646L48.4968 34.999Z" fill="#D0D5DD"/>
<path d="M112.281 100.736L112.439 101.721C112.533 102.31 112.938 102.771 113.521 102.954L114.492 103.258L113.425 103.561C112.784 103.744 112.23 104.205 111.947 104.795L111.476 105.779L111.319 104.795C111.224 104.205 110.82 103.744 110.236 103.561L109.263 103.258L110.332 102.954C110.973 102.771 111.525 102.31 111.808 101.721L112.281 100.736Z" fill="#F7F9FC"/>
<path d="M36.6189 107.755L36.7765 108.738C36.8714 109.327 37.2764 109.79 37.8592 109.971L38.8302 110.275L37.7627 110.578C37.1222 110.761 36.5681 111.222 36.2851 111.813L35.814 112.796L35.6565 111.813C35.5633 111.223 35.1583 110.761 34.5754 110.578L33.6045 110.275L34.672 109.971C35.3125 109.79 35.8649 109.329 36.1479 108.738L36.6189 107.755Z" fill="#D0D5DD"/>
</g>
</svg>
