<svg width="81" height="80" viewBox="0 0 81 80" fill="none" xmlns="http://www.w3.org/2000/svg">
<g opacity="0.5">
<path d="M40.5002 65.4387C55.6038 65.4387 67.8476 60.6356 67.8476 54.7106C67.8476 48.7856 55.6038 43.9824 40.5002 43.9824C25.3967 43.9824 13.1528 48.7856 13.1528 54.7106C13.1528 60.6356 25.3967 65.4387 40.5002 65.4387Z" fill="#F9FAFB"/>
<path d="M41.3983 22.9294C41.3457 22.8583 41.2857 22.7931 41.219 22.7346C40.9835 22.5287 40.665 22.4102 40.3116 22.4102C40.2027 22.4102 40.0887 22.422 39.9731 22.4457C39.9168 22.4576 39.862 22.4724 39.8079 22.4887C39.802 22.4902 39.7961 22.4916 39.7901 22.4931C39.7679 22.5005 39.7457 22.5087 39.7235 22.5168C39.7146 22.5198 39.705 22.5227 39.6961 22.5265C39.6598 22.5405 39.6235 22.5553 39.5879 22.5709C39.5857 22.5716 39.5835 22.5731 39.582 22.5739C39.5331 22.5961 39.4857 22.6205 39.439 22.6465C39.4361 22.6479 39.4339 22.6494 39.4309 22.6509C39.4198 22.6576 39.4094 22.665 39.3983 22.6716C39.3694 22.6894 39.3405 22.7072 39.3124 22.7257C39.3072 22.7294 39.3013 22.7324 39.2961 22.7361C39.285 22.7435 39.2746 22.7524 39.2635 22.7605C39.2405 22.7776 39.2176 22.7939 39.1946 22.8116C39.1879 22.8168 39.1805 22.822 39.1731 22.8272C39.1642 22.8346 39.1553 22.8427 39.1464 22.8502C39.125 22.8679 39.1042 22.8865 39.0835 22.905C39.0753 22.9124 39.0672 22.919 39.059 22.9265C39.0435 22.9413 39.0279 22.9561 39.0131 22.9716C38.9931 22.9924 38.9739 23.0131 38.9546 23.0339C38.9494 23.039 38.9457 23.045 38.9405 23.0509C38.9183 23.0761 38.8968 23.1027 38.8761 23.1287C38.8687 23.1383 38.8598 23.1472 38.8531 23.1568C38.8509 23.1598 38.8494 23.1627 38.8472 23.1657C38.8153 23.2079 38.7857 23.2516 38.7583 23.2968C38.7568 23.299 38.7553 23.3005 38.7538 23.3027C38.7346 23.3346 38.7161 23.3672 38.6983 23.3998C38.6946 23.4065 38.6916 23.4139 38.6879 23.4205C38.6761 23.4442 38.6635 23.4679 38.6531 23.4916C38.6501 23.4976 38.6487 23.5035 38.6457 23.5094C38.6405 23.522 38.6353 23.5346 38.6301 23.5479C38.6198 23.5731 38.6101 23.5983 38.6013 23.6235C38.5961 23.6368 38.5916 23.6509 38.5872 23.6642C38.5783 23.6909 38.5709 23.7168 38.5635 23.7435C38.5605 23.7561 38.5568 23.7679 38.5538 23.7805C38.5442 23.819 38.5361 23.8583 38.5301 23.8976C38.5131 24.0027 38.5072 24.1109 38.5153 24.2183L38.5538 24.7798L40.1553 26.9627L40.1168 26.4013C40.1087 26.2931 40.1146 26.1857 40.1316 26.0805C40.1376 26.0413 40.1464 26.002 40.1553 25.9635C40.1583 25.9509 40.162 25.939 40.165 25.9265C40.1724 25.8998 40.1798 25.8731 40.1879 25.8472C40.1924 25.8339 40.1968 25.8198 40.202 25.8065C40.2109 25.7813 40.2205 25.7561 40.2309 25.7309C40.2361 25.7183 40.2413 25.7057 40.2464 25.6931C40.2598 25.6635 40.2739 25.6339 40.2887 25.6042C40.2924 25.5976 40.2953 25.5902 40.299 25.5835C40.3176 25.5487 40.3376 25.5139 40.3583 25.4798C40.3857 25.4353 40.4161 25.3916 40.4472 25.3487C40.4568 25.3361 40.4664 25.3242 40.4768 25.3116C40.4976 25.285 40.519 25.259 40.5413 25.2339C40.565 25.2072 40.5887 25.1805 40.6138 25.1546C40.6368 25.1316 40.6605 25.1102 40.6842 25.0879C40.705 25.0694 40.7257 25.0509 40.7472 25.0331C40.7627 25.0198 40.779 25.0065 40.7953 24.9939C40.8176 24.9761 40.8405 24.959 40.8642 24.9427C40.8805 24.9309 40.8961 24.919 40.9131 24.9079C40.9413 24.8894 40.9701 24.8716 40.999 24.8539C41.0131 24.8457 41.0264 24.8368 41.0405 24.8287C41.0872 24.8027 41.1346 24.7783 41.1835 24.7561C41.2213 24.739 41.259 24.7227 41.2983 24.7079C41.3072 24.7042 41.3168 24.7013 41.3257 24.6983C41.3539 24.6879 41.382 24.679 41.4109 24.6702C41.465 24.6539 41.5198 24.6383 41.5761 24.6272C41.6916 24.6035 41.8057 24.5916 41.9146 24.5916C42.2687 24.5916 42.5872 24.7102 42.822 24.9161C42.8887 24.9746 42.9487 25.039 43.0013 25.1109L41.3983 22.9294Z" fill="#D0D5DD"/>
<path d="M40.1547 27.1116C40.1088 27.1116 40.0636 27.0901 40.0355 27.0509L38.434 24.8672C38.4177 24.8442 38.4073 24.8175 38.4058 24.7894L38.3673 24.2279C38.3584 24.1138 38.3644 23.9938 38.3836 23.8731C38.3903 23.8331 38.3984 23.7909 38.4095 23.745C38.4118 23.7353 38.4147 23.725 38.417 23.7153L38.4199 23.7042C38.4281 23.6753 38.4362 23.6464 38.4451 23.6175C38.4503 23.6027 38.4555 23.5879 38.4607 23.5724C38.4703 23.545 38.4807 23.5175 38.4925 23.4901L38.4955 23.482C38.4999 23.4709 38.5044 23.4598 38.5095 23.4487L38.517 23.4301C38.5288 23.4042 38.5407 23.3805 38.5532 23.3561L38.5584 23.3457C38.5614 23.3398 38.5636 23.3346 38.5666 23.3287C38.5851 23.2931 38.6051 23.2583 38.6266 23.2235C38.6281 23.2205 38.6325 23.2146 38.6347 23.2116C38.6607 23.1701 38.6925 23.122 38.7281 23.0753C38.7281 23.0746 38.731 23.0701 38.7347 23.0657C38.7407 23.0583 38.7466 23.0509 38.7532 23.0435L38.7599 23.0353C38.7821 23.0064 38.8051 22.9783 38.8295 22.9509C38.8355 22.9427 38.8399 22.9383 38.8444 22.9331C38.8651 22.9094 38.8866 22.8872 38.9081 22.8657C38.9244 22.8494 38.9407 22.8331 38.9577 22.8175C38.9644 22.8116 38.971 22.8057 38.9777 22.7998L38.9844 22.7938C39.0058 22.7738 39.0288 22.7538 39.0518 22.7346L39.0599 22.7272C39.0666 22.7212 39.0733 22.7153 39.0807 22.7094C39.0866 22.7049 39.0925 22.7005 39.0984 22.6961C39.1273 22.6731 39.1525 22.6553 39.1777 22.6375L39.1873 22.6301C39.1955 22.6235 39.2036 22.6175 39.2125 22.6116C39.2177 22.6079 39.2229 22.6049 39.2281 22.6012C39.2599 22.5798 39.291 22.5612 39.3221 22.542L39.3318 22.5361C39.3399 22.5309 39.3488 22.5249 39.3577 22.5198C39.3607 22.5183 39.3673 22.5146 39.3703 22.5131C39.417 22.4872 39.4688 22.4605 39.5199 22.4368L39.5266 22.4331C39.5651 22.4161 39.6044 22.3998 39.6436 22.385C39.6503 22.3827 39.6577 22.3798 39.6644 22.3775L39.6851 22.3701C39.7051 22.3627 39.7251 22.3553 39.7458 22.3494C39.7525 22.3472 39.7592 22.3457 39.7658 22.3442C39.8318 22.3242 39.8888 22.3094 39.9444 22.2983C40.0695 22.2731 40.1932 22.2598 40.3125 22.2598C40.694 22.2598 41.051 22.3879 41.3177 22.6205C41.3925 22.6864 41.4607 22.7598 41.5184 22.839L43.1199 25.022C43.1681 25.0879 43.154 25.1805 43.0881 25.2294C43.0221 25.2775 42.9295 25.2635 42.8807 25.1975V25.1968C42.8355 25.1353 42.7829 25.0775 42.7244 25.0264C42.5118 24.8405 42.2244 24.7383 41.914 24.7383C41.814 24.7383 41.7103 24.7494 41.6051 24.7709C41.5599 24.7805 41.5103 24.7931 41.454 24.8101C41.4273 24.8183 41.4014 24.8264 41.3755 24.8361L41.3503 24.845C41.3147 24.8583 41.2799 24.8731 41.2451 24.8887C41.2014 24.9087 41.157 24.9309 41.1133 24.9561C41.1058 24.9598 41.0992 24.9642 41.0925 24.9687L41.0747 24.979C41.0481 24.9953 41.0214 25.0116 40.9955 25.0287C40.9829 25.0368 40.9718 25.0457 40.9599 25.0538L40.951 25.0605C40.9295 25.0761 40.9088 25.0916 40.8881 25.1079C40.8732 25.1198 40.8584 25.1316 40.8436 25.1442C40.8244 25.1605 40.8051 25.1775 40.7858 25.1946L40.7792 25.2005C40.7592 25.2183 40.7399 25.2368 40.7207 25.2561C40.6977 25.2798 40.6755 25.3042 40.654 25.3287C40.6333 25.3524 40.614 25.3761 40.5947 25.4005L40.5829 25.4153C40.5777 25.422 40.5725 25.4279 40.5673 25.4346C40.5377 25.4746 40.5103 25.5153 40.4851 25.5546C40.4658 25.5857 40.4473 25.6175 40.4303 25.6494L40.4207 25.6687C40.4073 25.6946 40.394 25.722 40.3821 25.7487L40.3681 25.7835C40.3584 25.8064 40.3495 25.8294 40.3414 25.8524C40.337 25.865 40.3325 25.8768 40.3288 25.8894C40.3207 25.9138 40.314 25.9375 40.3073 25.962L40.2984 25.9953C40.2903 26.0301 40.2829 26.0657 40.277 26.1005C40.2614 26.1983 40.257 26.2953 40.2636 26.3872L40.3021 26.9494C40.3066 27.0153 40.2673 27.0761 40.2051 27.0983C40.1888 27.1087 40.1718 27.1116 40.1547 27.1116ZM38.6984 24.7272L39.9725 26.4642L39.9688 26.4124C39.9599 26.2983 39.9658 26.1783 39.9851 26.0575C39.9918 26.0175 39.9999 25.9753 40.011 25.9294C40.0133 25.9198 40.0162 25.9101 40.0184 25.8998L40.0214 25.8887C40.0288 25.8598 40.0377 25.8309 40.0466 25.802C40.051 25.7872 40.0562 25.7724 40.0621 25.7568C40.0718 25.7294 40.0821 25.702 40.094 25.6746L40.0977 25.6657C40.1021 25.6553 40.1066 25.6442 40.111 25.6338C40.1251 25.6012 40.1407 25.5694 40.157 25.5375L40.1681 25.5153C40.1881 25.4775 40.2095 25.4398 40.2325 25.4035C40.2614 25.3561 40.294 25.3087 40.3288 25.262C40.3362 25.2524 40.3436 25.2427 40.351 25.2338L40.3607 25.222C40.3829 25.1938 40.4058 25.1657 40.4303 25.1383C40.4555 25.1094 40.4814 25.0805 40.5088 25.0531C40.531 25.0301 40.5547 25.0087 40.5784 24.9872L40.5851 24.9812C40.6073 24.9612 40.6295 24.9412 40.6525 24.922C40.6695 24.9079 40.6866 24.8938 40.7044 24.8798C40.7288 24.8605 40.7533 24.8427 40.7784 24.825L40.7873 24.8183C40.8021 24.8079 40.8162 24.7975 40.831 24.7872C40.8614 24.7672 40.8925 24.7479 40.9236 24.7294L40.9377 24.7212C40.9481 24.7153 40.9577 24.7087 40.9688 24.7027C41.0199 24.6738 41.0718 24.6479 41.1229 24.6242C41.1636 24.6057 41.2044 24.5887 41.2466 24.5724L41.2762 24.562C41.3066 24.5509 41.337 24.5412 41.3681 24.5316C41.4332 24.5116 41.4918 24.4961 41.5466 24.4849C41.8384 24.4249 42.1207 24.4368 42.377 24.5124L41.2807 23.0183C41.2355 22.9561 41.1821 22.899 41.1236 22.8479C40.911 22.662 40.6229 22.5598 40.3132 22.5598C40.214 22.5598 40.1095 22.5709 40.0044 22.5924C39.9584 22.602 39.9103 22.6146 39.8533 22.6316C39.8473 22.6331 39.8414 22.6346 39.8355 22.6361C39.8199 22.6405 39.8036 22.6464 39.7873 22.6524L39.7503 22.6657C39.7162 22.6783 39.6829 22.6924 39.6503 22.7072C39.6007 22.7301 39.5562 22.7531 39.5132 22.7775C39.5103 22.779 39.5036 22.7827 39.5007 22.7842C39.5014 22.7842 39.4984 22.7864 39.4947 22.7887C39.4888 22.7931 39.4821 22.7968 39.4755 22.8005C39.4488 22.8168 39.4221 22.8331 39.3962 22.8501C39.3918 22.8531 39.3866 22.8561 39.3821 22.859C39.377 22.862 39.3732 22.8657 39.3695 22.8687C39.3636 22.8731 39.3577 22.8775 39.3518 22.882C39.3303 22.8975 39.3088 22.9131 39.2881 22.9294C39.2829 22.9331 39.2784 22.9368 39.2732 22.9405L39.2599 22.9516C39.2547 22.9561 39.2495 22.9612 39.2436 22.9657C39.2244 22.982 39.2051 22.999 39.1858 23.0161C39.1807 23.0212 39.1755 23.0249 39.1703 23.0294L39.1629 23.0361C39.1488 23.0494 39.1347 23.0635 39.1207 23.0775C39.1021 23.0961 39.0844 23.1153 39.0666 23.1353C39.0614 23.142 39.0577 23.1464 39.0532 23.1509C39.0332 23.1738 39.014 23.1983 38.9947 23.222C38.9903 23.2279 38.9851 23.2338 38.9807 23.239L38.9732 23.2479C38.9732 23.2479 38.971 23.2516 38.9681 23.2553C38.9377 23.2961 38.9103 23.3361 38.8858 23.3761C38.8844 23.3783 38.8821 23.382 38.8799 23.385C38.8629 23.4131 38.8466 23.442 38.831 23.4709L38.8214 23.4901C38.8095 23.5138 38.7984 23.5346 38.7895 23.5553L38.7829 23.5716C38.7792 23.5798 38.7762 23.5879 38.7725 23.5968L38.7688 23.6057C38.7592 23.6287 38.7503 23.6516 38.7421 23.6746C38.7377 23.6872 38.7332 23.699 38.7295 23.7116C38.7221 23.7353 38.7147 23.7598 38.7081 23.7835L38.6992 23.8168C38.691 23.8516 38.6836 23.8864 38.6777 23.922C38.6621 24.0198 38.6577 24.1168 38.6644 24.2087L38.6984 24.7272Z" fill="#F9FAFB"/>
<path d="M42.1242 26.0899L40.5227 23.9069C40.5056 23.884 40.4864 23.8625 40.4649 23.844C40.3879 23.7773 40.2856 23.7388 40.1723 23.7388C40.136 23.7395 40.0997 23.7432 40.0619 23.7506C40.0419 23.7551 40.0219 23.7603 40.0027 23.7662C39.9968 23.7684 39.9916 23.7706 39.9856 23.7728C39.9768 23.7758 39.9686 23.7795 39.9605 23.7825C39.953 23.7854 39.9449 23.7877 39.9375 23.7914C39.9242 23.7973 39.9123 23.804 39.8997 23.8106C39.8968 23.8121 39.8938 23.8136 39.8916 23.8151C39.8901 23.8158 39.8893 23.8165 39.8879 23.8173C39.873 23.8254 39.859 23.8343 39.8449 23.844C39.8382 23.8484 39.8316 23.8536 39.8256 23.8588C39.8227 23.861 39.819 23.864 39.816 23.8662C39.8131 23.8684 39.8093 23.8706 39.8064 23.8728C39.7938 23.8832 39.7819 23.8936 39.7701 23.9047C39.7642 23.9099 39.759 23.9158 39.7538 23.921C39.7471 23.9277 39.7405 23.9351 39.7338 23.9417C39.7219 23.9543 39.7108 23.9684 39.7005 23.9817C39.6997 23.9825 39.699 23.984 39.6982 23.9854C39.696 23.9884 39.6945 23.9914 39.6923 23.9943C39.6842 24.0062 39.676 24.0173 39.6686 24.0299C39.6649 24.0358 39.6619 24.0425 39.659 24.0484C39.6545 24.0565 39.6501 24.0647 39.6456 24.0728C39.6427 24.0788 39.639 24.0847 39.636 24.0906C39.6316 24.101 39.6279 24.1121 39.6242 24.1225C39.6212 24.1299 39.6182 24.1373 39.6153 24.1454C39.6071 24.1699 39.6005 24.1943 39.5968 24.2195C39.5916 24.2536 39.5901 24.2884 39.5923 24.3232L39.6234 24.781L41.2249 26.964L41.1938 26.5062C41.1916 26.4714 41.193 26.4365 41.1982 26.4025C41.2019 26.3773 41.2086 26.3528 41.2168 26.3284C41.219 26.321 41.2227 26.3136 41.2256 26.3054C41.2323 26.2884 41.239 26.2721 41.2471 26.2558C41.2516 26.2477 41.256 26.2395 41.2605 26.2314C41.2708 26.2128 41.2819 26.1951 41.2945 26.1773C41.2967 26.1743 41.2982 26.1714 41.3005 26.1684C41.3175 26.1462 41.3353 26.124 41.3553 26.104C41.3745 26.084 41.3953 26.0662 41.4175 26.0484C41.4205 26.0462 41.4242 26.0432 41.4271 26.041C41.4479 26.0254 41.4701 26.0106 41.493 25.9973C41.496 25.9958 41.499 25.9943 41.5012 25.9928C41.5212 25.9825 41.5412 25.9728 41.5627 25.9647C41.5708 25.961 41.5797 25.958 41.5879 25.9551C41.6123 25.9462 41.6375 25.9388 41.6642 25.9328C41.7019 25.9254 41.7382 25.9217 41.7745 25.921C41.8879 25.921 41.9901 25.9595 42.0671 26.0262C42.0879 26.0462 42.1071 26.0669 42.1242 26.0899Z" fill="#D0D5DD"/>
<path d="M41.2243 27.1116C41.1784 27.1116 41.1332 27.0901 41.105 27.0508L39.5036 24.8671C39.4873 24.8442 39.4769 24.8175 39.4754 24.7894L39.4443 24.3316C39.4413 24.2849 39.4428 24.239 39.4502 24.1945C39.4554 24.1642 39.4628 24.1323 39.4739 24.0975C39.4769 24.0886 39.4799 24.0805 39.4828 24.0723L39.4873 24.0605C39.491 24.0494 39.4954 24.0382 39.5006 24.0271C39.5043 24.0197 39.508 24.0123 39.5117 24.0049C39.5176 23.9938 39.5228 23.9834 39.5287 23.9723C39.5332 23.9634 39.5369 23.9568 39.5413 23.9494C39.551 23.9338 39.5613 23.919 39.5717 23.9049C39.5732 23.9027 39.5747 23.9005 39.5769 23.8975C39.5776 23.896 39.5791 23.8945 39.5799 23.8931C39.5954 23.8723 39.6095 23.856 39.6236 23.8397C39.6317 23.8308 39.6399 23.8219 39.648 23.8138C39.6539 23.8079 39.6606 23.8005 39.668 23.7945C39.6828 23.7805 39.6976 23.7679 39.7132 23.7553C39.7154 23.7538 39.7228 23.7479 39.725 23.7464L39.7421 23.7338C39.748 23.7294 39.7547 23.7242 39.7613 23.7197C39.7791 23.7079 39.7969 23.6968 39.8147 23.6864C39.8176 23.6849 39.8221 23.6819 39.825 23.6812L39.831 23.6782C39.845 23.6708 39.8606 23.6619 39.8769 23.6545C39.885 23.6508 39.8932 23.6479 39.9013 23.6449C39.9162 23.639 39.9265 23.6353 39.9376 23.6316C39.945 23.6286 39.9517 23.6257 39.9591 23.6234C39.9836 23.616 40.008 23.6094 40.0324 23.6042C40.0776 23.5953 40.1221 23.5901 40.1695 23.5894C40.3191 23.5894 40.4569 23.6397 40.5621 23.7308C40.5925 23.7575 40.6191 23.7871 40.6421 23.8182L42.2428 26.0012C42.2428 26.0012 42.2428 26.0019 42.2436 26.0019C42.2917 26.0679 42.2776 26.1605 42.2117 26.2094C42.1458 26.2575 42.0532 26.2434 42.0043 26.1775C41.9939 26.1634 41.9821 26.1501 41.9687 26.1382C41.9176 26.0938 41.8487 26.0694 41.7739 26.0694C41.7473 26.0701 41.7191 26.0731 41.6924 26.0782C41.6769 26.0812 41.6599 26.0864 41.6362 26.0945C41.6295 26.0968 41.6228 26.0997 41.6169 26.1019C41.6013 26.1079 41.5858 26.1153 41.571 26.1227C41.5695 26.1234 41.5636 26.1264 41.5621 26.1271C41.5487 26.1345 41.5324 26.1457 41.5147 26.1582L41.4162 26.0471L41.5073 26.1642C41.4887 26.1782 41.4739 26.1923 41.4599 26.2064C41.445 26.2219 41.431 26.2382 41.4176 26.256L41.4132 26.2627C41.4043 26.2753 41.3962 26.2886 41.388 26.3027C41.385 26.3086 41.3813 26.3145 41.3784 26.3212C41.3724 26.3323 41.3673 26.3449 41.3628 26.3568L41.3591 26.3664C41.3502 26.3923 41.3458 26.4094 41.3436 26.4242C41.3399 26.4457 41.3391 26.4701 41.3406 26.4945L41.3717 26.9523C41.3762 27.0182 41.3369 27.079 41.2747 27.1012C41.2584 27.1086 41.2413 27.1116 41.2243 27.1116ZM39.768 24.7271L41.0443 26.4671C41.0443 26.4375 41.0473 26.4079 41.0517 26.379C41.0569 26.3486 41.0643 26.3168 41.0762 26.2819C41.0784 26.2738 41.0821 26.2664 41.085 26.2582C41.0954 26.2308 41.1043 26.2101 41.1147 26.1894C41.1199 26.1782 41.1258 26.1686 41.131 26.1582C41.1443 26.1345 41.1584 26.1123 41.1739 26.0901C41.1762 26.0871 41.1784 26.0827 41.1813 26.079C41.2021 26.0508 41.2258 26.0234 41.2495 25.999C41.2717 25.976 41.2969 25.9538 41.3258 25.9308C41.3265 25.9301 41.3339 25.9249 41.3347 25.9242C41.3658 25.9012 41.3924 25.8834 41.4199 25.8679C41.4221 25.8664 41.4287 25.8634 41.431 25.862C41.4547 25.8494 41.4799 25.8375 41.5065 25.8271C41.5176 25.8227 41.528 25.819 41.5384 25.8153C41.5739 25.8027 41.6036 25.7945 41.6332 25.7879C41.6591 25.7827 41.6843 25.779 41.711 25.7768L40.4036 23.9945C40.3932 23.9805 40.3813 23.9671 40.3673 23.9553C40.3162 23.9116 40.2473 23.8864 40.1725 23.8864C40.1458 23.8871 40.1176 23.8901 40.091 23.8953C40.0769 23.8982 40.0621 23.9019 40.048 23.9064C40.045 23.9079 40.0399 23.9101 40.0354 23.9116C40.0287 23.9138 40.0221 23.9168 40.0162 23.919L40.0013 23.9249C39.9887 23.9301 39.9791 23.9353 39.9702 23.9405C39.9687 23.9412 39.9628 23.9442 39.9613 23.9449C39.9606 23.9457 39.9591 23.9464 39.9584 23.9464C39.9487 23.9523 39.9384 23.9582 39.9295 23.9649L39.9147 23.976L39.8162 23.8649L39.908 23.9812C39.9065 23.9827 39.9006 23.9871 39.8991 23.9879C39.891 23.9945 39.8821 24.0027 39.8732 24.0108L39.8606 24.0234C39.8547 24.0294 39.8495 24.0345 39.845 24.0397C39.8369 24.0486 39.8295 24.0575 39.8221 24.0671C39.8206 24.0686 39.8199 24.0708 39.8191 24.0716C39.8176 24.0731 39.8154 24.0775 39.8139 24.079C39.808 24.0879 39.8013 24.096 39.7954 24.1057L39.7887 24.119C39.785 24.1257 39.7821 24.1308 39.7791 24.1368L39.7717 24.1508C39.771 24.1531 39.7695 24.156 39.7687 24.1597L39.7606 24.1827C39.7517 24.2094 39.7473 24.2257 39.745 24.2412C39.7413 24.2627 39.7406 24.2871 39.7421 24.3116L39.768 24.7271Z" fill="#F9FAFB"/>
<path d="M42.6891 26.1989C42.6869 26.1626 42.6817 26.127 42.675 26.0922C42.675 26.0907 42.6743 26.0892 42.6735 26.0877C42.6654 26.0492 42.6558 26.0114 42.6424 25.9752C42.6313 25.9448 42.6187 25.9151 42.6039 25.8863C42.6032 25.884 42.6017 25.8826 42.6002 25.8803C42.5965 25.8729 42.5913 25.8655 42.5876 25.8581C42.5787 25.8426 42.5698 25.8263 42.5602 25.8114C42.5543 25.8026 42.5476 25.7929 42.5409 25.784L40.9395 23.6011C40.9565 23.6248 40.9713 23.65 40.9861 23.6751C40.9906 23.6826 40.995 23.6892 40.9987 23.6974C41.015 23.7277 41.0291 23.7596 41.0409 23.7922C41.0543 23.8285 41.0639 23.8655 41.072 23.9048C41.0795 23.9403 41.0846 23.9774 41.0869 24.0151L41.1387 24.7796L42.7402 26.9626L42.6891 26.1989Z" fill="#D0D5DD"/>
<path d="M42.7411 27.1116C42.6951 27.1116 42.6499 27.0901 42.6218 27.0508L41.0203 24.8671C41.004 24.8442 40.9936 24.8175 40.9922 24.7894L40.9403 24.0249C40.9381 23.9945 40.9344 23.9649 40.9277 23.9338C40.9211 23.9012 40.9129 23.8701 40.9025 23.842C40.8936 23.8175 40.8825 23.7923 40.8685 23.7657L40.8581 23.7486C40.8462 23.7279 40.8336 23.7064 40.8211 23.6886C40.7729 23.6227 40.787 23.5301 40.8529 23.4812C40.9188 23.4331 41.0114 23.4471 41.0603 23.5131C41.0603 23.5131 41.0603 23.5138 41.0611 23.5138L42.6618 25.6968C42.6692 25.7071 42.6773 25.7183 42.6848 25.7294C42.6951 25.7449 42.704 25.7605 42.7129 25.7768L42.7181 25.7857C42.724 25.7953 42.7277 25.802 42.7314 25.8079C42.7336 25.8116 42.7359 25.816 42.7374 25.8182C42.7551 25.8523 42.7707 25.8879 42.784 25.9242C42.7988 25.9649 42.8107 26.0079 42.8203 26.0531C42.8218 26.0575 42.8225 26.062 42.8233 26.0657C42.8307 26.1042 42.8366 26.1464 42.8388 26.1886L42.8907 26.9531C42.8951 27.019 42.8559 27.0797 42.7936 27.102C42.7751 27.1086 42.7581 27.1116 42.7411 27.1116ZM41.2848 24.7271L42.5588 26.4642L42.5418 26.2094C42.5403 26.1812 42.5366 26.1538 42.5314 26.1271C42.5307 26.1257 42.5307 26.1234 42.5299 26.122C42.5225 26.0857 42.5144 26.0553 42.504 26.0271C42.4959 26.0042 42.4855 25.9812 42.4744 25.959C42.4729 25.956 42.4707 25.9523 42.4692 25.9501L42.4529 25.9227C42.4477 25.9138 42.4425 25.9042 42.4366 25.8953C42.4314 25.8879 42.4262 25.8805 42.4211 25.8731L41.2536 24.2812L41.2848 24.7271Z" fill="#F9FAFB"/>
<path d="M31.9815 24.7808H38.0563L38.2052 26.963L31.4111 28.3548L31.9815 24.7808Z" fill="#F7F9FC"/>
<path d="M31.4111 28.5029C31.3733 28.5029 31.3363 28.4881 31.3089 28.4622C31.2741 28.4289 31.257 28.38 31.2652 28.3318L31.8356 24.757C31.8467 24.6852 31.9089 24.6318 31.9822 24.6318H38.057C38.1348 24.6318 38.1993 24.6918 38.2052 24.7696L38.3541 26.9518C38.3593 27.0259 38.3089 27.0918 38.2363 27.1074L31.4422 28.5C31.4311 28.5022 31.4207 28.5029 31.4111 28.5029ZM32.1074 24.9289L31.5911 28.1674L38.0489 26.8437L37.9185 24.9289H32.1074Z" fill="#F9FAFB"/>
<path d="M38.2052 26.9629L39.8067 29.1459L33.0126 30.5384L31.4111 28.3547L38.2052 26.9629Z" fill="#98A2B3"/>
<path d="M33.0125 30.6867C32.9659 30.6867 32.9214 30.6645 32.8933 30.6259L31.2918 28.4422C31.2622 28.4015 31.2548 28.3482 31.2733 28.3015C31.2918 28.2541 31.3325 28.22 31.3814 28.2096L38.1755 26.817C38.2318 26.8052 38.2903 26.8282 38.3244 26.8748L39.9259 29.0585C39.9555 29.0993 39.9629 29.1526 39.9444 29.1993C39.9259 29.2467 39.8851 29.2808 39.8362 29.2911L33.0422 30.6837C33.0325 30.6859 33.0222 30.6867 33.0125 30.6867ZM31.6674 28.4541L33.0762 30.3748L39.5511 29.0482L38.1422 27.1274L31.6674 28.4541Z" fill="#F9FAFB"/>
<path d="M39.2701 31.861C39.1146 31.7247 39.0138 31.5321 38.9983 31.301L38.6953 26.861L39.2598 26.7454L39.4131 28.9884C39.4205 29.098 39.5086 29.1728 39.6205 29.1728C39.6375 29.1728 39.6553 29.1713 39.6738 29.1669C39.8094 29.1387 39.9124 29.0143 39.9035 28.8876L39.7501 26.6447L40.7568 26.438L41.0605 30.878C41.0649 30.9498 41.0612 31.0202 41.0501 31.0906C41.0138 31.3165 40.8983 31.5313 40.7309 31.7024C40.562 31.8735 40.3427 32.0002 40.0953 32.0513C40.0198 32.0661 39.9442 32.0743 39.8716 32.0743C39.6368 32.075 39.4264 31.9972 39.2701 31.861Z" fill="#D0D5DD"/>
<path d="M39.87 32.2233C39.6062 32.2233 39.3588 32.1344 39.1729 31.9729L39.1722 31.9722C38.9796 31.8033 38.8685 31.5744 38.8507 31.3114L38.5477 26.8714C38.5425 26.7974 38.5929 26.7314 38.6655 26.7159L39.2299 26.6003C39.2714 26.5914 39.3151 26.6018 39.3492 26.6277C39.3833 26.6537 39.4048 26.6929 39.407 26.7359L39.5603 28.9788C39.5633 29.0203 39.6033 29.0248 39.6203 29.0248C39.6277 29.0248 39.6359 29.024 39.644 29.0225C39.7122 29.0085 39.7588 28.9455 39.7559 28.8988L39.6025 26.6559C39.5974 26.5818 39.6477 26.5159 39.7203 26.5003L40.727 26.2937C40.7685 26.2848 40.8122 26.2951 40.8462 26.3211C40.8803 26.347 40.9018 26.3862 40.904 26.4292L41.2077 30.8692C41.2129 30.9529 41.2085 31.0351 41.1959 31.1151C41.1559 31.3655 41.0277 31.6114 40.8359 31.8077C40.6388 32.007 40.3929 32.1418 40.124 32.1981C40.0381 32.2151 39.9529 32.2233 39.87 32.2233ZM39.367 31.7499C39.5433 31.9025 39.7996 31.9611 40.0648 31.9077C40.2751 31.864 40.4685 31.7574 40.624 31.6003C40.7729 31.4485 40.8722 31.2596 40.9025 31.0692C40.9122 31.0099 40.9151 30.9499 40.9114 30.8892L40.6196 26.6196L39.9062 26.7655L40.0507 28.8796C40.0648 29.0803 39.9114 29.2707 39.7033 29.3136C39.6759 29.3196 39.6477 29.3225 39.6203 29.3225C39.427 29.3225 39.2781 29.187 39.2648 29.0003L39.1233 26.9262L38.8522 26.9818L39.1462 31.2922C39.1588 31.4751 39.2351 31.6336 39.367 31.7499Z" fill="#F9FAFB"/>
<path d="M38.5532 24.7803H39.1258L39.2599 26.7462L38.6954 26.8618L38.5532 24.7803Z" fill="#F7F9FC"/>
<path d="M38.6953 27.0101C38.6634 27.0101 38.6316 26.9997 38.6056 26.9797C38.5716 26.9538 38.5501 26.9145 38.5479 26.8716L38.4056 24.7901C38.4027 24.7494 38.4175 24.7086 38.4449 24.679C38.4731 24.6494 38.5123 24.6323 38.5531 24.6323H39.1249C39.2027 24.6323 39.2671 24.6923 39.2731 24.7701L39.4071 26.736C39.4123 26.8101 39.3619 26.876 39.2893 26.8916L38.7249 27.0071C38.7153 27.0094 38.7056 27.0101 38.6953 27.0101ZM38.7116 24.9286L38.8316 26.6827L39.1027 26.6271L38.9864 24.9286H38.7116Z" fill="#F9FAFB"/>
<path d="M43.8111 27.1116C43.7652 27.1116 43.72 27.0902 43.6919 27.0509L42.0904 24.8672C42.0741 24.8442 42.0637 24.8176 42.0622 24.7894L41.9733 23.4887C41.9711 23.4524 41.9674 23.4168 41.9622 23.3813L41.957 23.3479C41.9533 23.325 41.9496 23.3013 41.9452 23.2783C41.9408 23.2554 41.9348 23.2331 41.9289 23.2109L41.9193 23.1709C41.9096 23.1361 41.8985 23.1013 41.8859 23.0679C41.8682 23.0198 41.8467 22.9694 41.8193 22.9146L41.8096 22.8946C41.7882 22.8539 41.7645 22.8124 41.7378 22.7724C41.7222 22.7487 41.7096 22.7294 41.6956 22.7109C41.6474 22.645 41.6615 22.5524 41.7274 22.5035C41.7541 22.4842 41.7845 22.4746 41.8148 22.4746C41.8608 22.4746 41.9052 22.4954 41.9341 22.5354L43.5356 24.7191C43.5504 24.7391 43.5645 24.7598 43.5785 24.7805C43.5807 24.7842 43.5867 24.7939 43.5889 24.7976C43.6178 24.842 43.6467 24.8902 43.6711 24.9376C43.6741 24.942 43.6763 24.9465 43.6785 24.9516C43.6807 24.9561 43.6837 24.9628 43.6867 24.9702C43.7178 25.0316 43.7437 25.0924 43.7652 25.1509C43.78 25.1916 43.7933 25.2331 43.8052 25.2753C43.8082 25.2857 43.8104 25.2953 43.8126 25.3057L43.8156 25.3191C43.823 25.3472 43.8296 25.3753 43.8356 25.405C43.8356 25.4057 43.837 25.4102 43.8378 25.4146C43.8415 25.4324 43.8445 25.4509 43.8467 25.4694C43.8467 25.4694 43.8548 25.5183 43.8556 25.5279C43.8615 25.5694 43.8652 25.6116 43.8682 25.6546L43.957 26.9546C43.9615 27.0205 43.9222 27.0813 43.86 27.1035C43.8452 27.1087 43.8282 27.1116 43.8111 27.1116Z" fill="#D0D5DD"/>
<path d="M41.8147 22.6243L43.4162 24.808C43.4295 24.8265 43.4428 24.845 43.4554 24.8643C43.4584 24.868 43.4599 24.8724 43.4628 24.8761C43.491 24.9198 43.5177 24.9643 43.5421 25.011C43.5436 25.0139 43.5451 25.0161 43.5465 25.0191C43.5488 25.0235 43.5502 25.0287 43.5532 25.0339C43.5806 25.0887 43.6058 25.1443 43.6265 25.2028C43.6399 25.2398 43.6517 25.2784 43.6628 25.3169C43.6665 25.3302 43.6695 25.3435 43.6725 25.3569C43.6791 25.3828 43.6858 25.4087 43.691 25.4354C43.6917 25.4384 43.6925 25.4413 43.6932 25.4443C43.6977 25.4665 43.7006 25.4887 43.7043 25.511C43.7065 25.5235 43.7088 25.5354 43.7102 25.548C43.7154 25.5865 43.7191 25.625 43.7221 25.6643L43.811 26.965L42.2095 24.7821L42.1206 23.4813C42.1177 23.4421 42.1139 23.4028 42.1088 23.365C42.1073 23.3524 42.1043 23.3406 42.1028 23.328C42.0991 23.3028 42.0947 23.2776 42.0895 23.2524C42.0843 23.2258 42.0777 23.1998 42.071 23.1739C42.0673 23.1606 42.0651 23.1472 42.0614 23.1347C42.0502 23.0961 42.0384 23.0576 42.0251 23.0206C42.0036 22.9621 41.9791 22.9065 41.9517 22.8517C41.948 22.8443 41.9443 22.8369 41.9406 22.8295C41.9162 22.7828 41.8895 22.7384 41.8614 22.6947C41.8458 22.6695 41.831 22.6465 41.8147 22.6243ZM42.0539 22.4487L41.8147 22.6243L41.5762 22.7998C41.5888 22.8169 41.6006 22.8347 41.6117 22.8524C41.6369 22.8917 41.6591 22.928 41.6777 22.9643L41.6799 22.9687L41.6865 22.9821C41.7117 23.0324 41.7317 23.0776 41.7465 23.1198C41.7465 23.1206 41.7473 23.1213 41.7473 23.1213C41.7577 23.1502 41.7673 23.1806 41.7762 23.2124C41.7769 23.2161 41.7777 23.2198 41.7791 23.2235C41.7806 23.231 41.7828 23.2376 41.7843 23.245C41.7902 23.268 41.7954 23.2887 41.7999 23.3102C41.8043 23.3302 41.8073 23.351 41.8102 23.3717L41.8132 23.3917C41.8139 23.3954 41.8147 23.3991 41.8147 23.4028C41.8191 23.4369 41.8221 23.4687 41.8243 23.4998L41.9132 24.8006C41.9169 24.8569 41.9369 24.9102 41.9702 24.9554L43.5717 27.1384C43.6288 27.2161 43.7184 27.2591 43.811 27.2591C43.8451 27.2591 43.8791 27.2532 43.9125 27.2413C44.0362 27.1961 44.1154 27.0747 44.1065 26.9428L44.0177 25.6421C44.0147 25.5984 44.0102 25.5524 44.0043 25.5065C44.0028 25.4947 44.0006 25.4835 43.9991 25.4717L43.9977 25.4621L43.9954 25.4487C43.9925 25.4272 43.9888 25.405 43.9843 25.3843C43.9836 25.3806 43.9821 25.3747 43.9806 25.368C43.9739 25.3376 43.9673 25.3095 43.9599 25.2813L43.9577 25.271C43.9547 25.2584 43.9517 25.2465 43.9488 25.2347C43.9354 25.188 43.9214 25.1428 43.9058 25.0998C43.9051 25.0991 43.9051 25.0976 43.9043 25.0969C43.8821 25.0354 43.8554 24.9739 43.8221 24.9072C43.8184 24.8984 43.8147 24.8895 43.8102 24.8813C43.808 24.8769 43.8043 24.871 43.8006 24.8643C43.7747 24.8154 43.7465 24.7672 43.7154 24.7191C43.711 24.7117 43.7065 24.7043 43.7021 24.6969C43.6873 24.6754 43.6717 24.6532 43.6562 24.631L42.0539 22.4487Z" fill="#F9FAFB"/>
<path d="M39.623 24.7803H40.6438L40.7571 26.4395L39.7505 26.6455L39.623 24.7803Z" fill="#F7F9FC"/>
<path d="M39.7503 26.7938C39.7184 26.7938 39.6866 26.7834 39.6607 26.7634C39.6266 26.7375 39.6051 26.6982 39.6029 26.6553L39.4755 24.7901C39.4725 24.7494 39.4873 24.7086 39.5147 24.679C39.5429 24.6494 39.5821 24.6323 39.6229 24.6323H40.6429C40.7207 24.6323 40.7851 24.6923 40.791 24.7701L40.9044 26.4294C40.9095 26.5034 40.8592 26.5694 40.7866 26.5849L39.7799 26.7908C39.7703 26.7931 39.7599 26.7938 39.7503 26.7938ZM39.7814 24.9286L39.8866 26.4671L40.5999 26.3212L40.5051 24.9294H39.7814V24.9286Z" fill="#F9FAFB"/>
<path d="M41.1401 24.7803H41.7127L41.8112 26.2232L41.2468 26.3388L41.1401 24.7803Z" fill="#F7F9FC"/>
<path d="M41.2466 26.4871C41.2148 26.4871 41.1829 26.4768 41.157 26.4568C41.1229 26.4308 41.1014 26.3916 41.0992 26.3486L40.9926 24.7901C40.9896 24.7494 41.0044 24.7086 41.0318 24.679C41.06 24.6494 41.0992 24.6323 41.14 24.6323H41.7126C41.7903 24.6323 41.8548 24.6923 41.8607 24.7701L41.9592 26.2131C41.9644 26.2871 41.914 26.3531 41.8414 26.3686L41.277 26.4842C41.2666 26.4864 41.2563 26.4871 41.2466 26.4871ZM41.2985 24.9286L41.3829 26.1605L41.6548 26.1049L41.5748 24.9294H41.2985V24.9286Z" fill="#F9FAFB"/>
<path d="M42.2095 24.7803H56.091L52.1687 49.3736H45.8384L44.8643 55.4803L44.7376 55.5855H44.0384C44.5384 55.3032 44.868 54.764 44.8191 54.2262L43.7872 42.8151H48.6961C48.9102 42.8151 49.111 42.6477 49.1435 42.441C49.1769 42.2336 49.0295 42.0669 48.8154 42.0669H43.7198L43.4428 39.0003H49.305C49.5191 39.0003 49.7198 38.8329 49.7532 38.6255C49.7858 38.4188 49.6391 38.2514 49.425 38.2514H43.3754L43.0984 35.1847H49.9139C50.128 35.1847 50.3287 35.0173 50.3621 34.8099C50.3947 34.6032 50.248 34.4358 50.0339 34.4358H43.0369C43.0465 33.7899 43.5828 33.1721 44.2776 33.0292C45.0087 32.8788 45.5635 32.2055 45.5161 31.524L45.5058 31.3692H50.5228C50.7369 31.3692 50.9376 31.2018 50.971 30.9943C51.0035 30.7877 50.8569 30.6203 50.6428 30.6203H45.4547L45.1924 26.784C45.1524 26.1936 44.6747 25.7906 44.0732 25.7906C43.9798 25.7906 43.8835 25.8003 43.7858 25.8203L42.4635 26.0914L42.3028 26.124L42.2095 24.7803Z" fill="#F7F9FC"/>
<path d="M44.7377 55.7345H44.0384C43.971 55.7345 43.9125 55.6893 43.8955 55.6242C43.8784 55.559 43.9073 55.4908 43.9658 55.4575C44.4303 55.1953 44.714 54.7056 44.6717 54.2405L43.6399 42.8293C43.6362 42.7879 43.6503 42.7471 43.6784 42.716C43.7066 42.6856 43.7466 42.6679 43.788 42.6679H48.6969C48.8384 42.6679 48.9769 42.5538 48.9984 42.4182C49.0073 42.3627 48.9955 42.3138 48.9636 42.276C48.9303 42.2368 48.8777 42.2153 48.8162 42.2153H43.7206C43.6443 42.2153 43.5799 42.1568 43.5732 42.0805L43.2962 39.0138C43.2925 38.9723 43.3066 38.9316 43.3347 38.9005C43.3629 38.8701 43.4029 38.8523 43.4443 38.8523H49.3066C49.448 38.8523 49.5866 38.7375 49.608 38.6019C49.6169 38.5471 49.6043 38.4968 49.5725 38.4597C49.5392 38.4205 49.4866 38.399 49.4258 38.399H43.3762C43.2999 38.399 43.2355 38.3405 43.2288 38.2642L42.9517 35.1975C42.948 35.156 42.9621 35.1153 42.9903 35.0842C43.0184 35.0538 43.0584 35.036 43.0999 35.036H49.9155C50.0569 35.036 50.1955 34.9212 50.2169 34.7856C50.2258 34.7308 50.2132 34.6805 50.1821 34.6442C50.1488 34.6049 50.0962 34.5834 50.0354 34.5834H43.0384C42.9984 34.5834 42.9606 34.5679 42.9332 34.539C42.9058 34.5101 42.8903 34.4723 42.891 34.433C42.9021 33.7064 43.4858 33.0405 44.2495 32.8834C44.9095 32.7479 45.4125 32.1427 45.3703 31.5338L45.3599 31.379C45.3569 31.3382 45.3717 31.2975 45.3992 31.2679C45.4273 31.2375 45.4666 31.2212 45.5073 31.2212H50.5243C50.6658 31.2212 50.8043 31.1064 50.8258 30.9708C50.8347 30.916 50.8221 30.8656 50.791 30.8286C50.7577 30.7893 50.7051 30.7679 50.6443 30.7679H45.4562C45.3784 30.7679 45.314 30.7079 45.308 30.6301L45.0458 26.7938C45.0117 26.2901 44.6125 25.939 44.074 25.939C43.9895 25.939 43.9029 25.9479 43.8162 25.9656L42.3332 26.2701C42.291 26.279 42.248 26.2686 42.214 26.2427C42.1799 26.2168 42.1584 26.1775 42.1562 26.1345L42.0643 24.7916C42.0614 24.7508 42.0762 24.7101 42.1036 24.6805C42.1317 24.6508 42.171 24.6338 42.2117 24.6338H56.0932C56.1369 24.6338 56.1777 24.653 56.2058 24.6856C56.234 24.7182 56.2466 24.7619 56.2392 24.8049L52.3169 49.3982C52.3058 49.4701 52.2436 49.5234 52.1703 49.5234H45.9666L45.0125 55.5056C45.0066 55.5412 44.9888 55.573 44.9606 55.596L44.834 55.7012C44.8058 55.7219 44.7725 55.7345 44.7377 55.7345ZM44.4799 55.4382H44.6843L44.7273 55.4027L44.7858 55.0338C44.7066 55.1797 44.6029 55.3168 44.4799 55.4382ZM43.9495 42.9634L44.9488 54.0138L45.6925 49.3508C45.7036 49.279 45.7658 49.2256 45.8392 49.2256H52.0429L55.9177 24.9286H42.368L42.4377 25.9442L43.7547 25.6738C43.8606 25.6523 43.968 25.6412 44.0717 25.6412C44.7621 25.6412 45.2947 26.1168 45.3392 26.7723L45.5917 30.4708H50.6414C50.7888 30.4708 50.9243 30.5308 51.014 30.636C51.1029 30.7397 51.1392 30.8753 51.1162 31.0168C51.0717 31.2968 50.8103 31.5168 50.5221 31.5168H45.6636C45.7132 32.2671 45.1051 33.0101 44.3066 33.1738C43.7399 33.2901 43.2799 33.7634 43.1969 34.2871H50.0325C50.1799 34.2871 50.3154 34.3471 50.4051 34.4523C50.494 34.556 50.5303 34.6916 50.5073 34.833C50.4629 35.113 50.2014 35.333 49.9132 35.333H43.2599L43.5103 38.1034H49.4243C49.5717 38.1034 49.7073 38.1634 49.7969 38.2679C49.8858 38.3716 49.9221 38.5071 49.8992 38.6486C49.8547 38.9286 49.5932 39.1486 49.3051 39.1486H43.6051L43.8554 41.919H48.8162C48.9636 41.919 49.0992 41.979 49.1888 42.0834C49.2769 42.1871 49.3132 42.3227 49.291 42.4642C49.2466 42.7442 48.9858 42.9634 48.6969 42.9634H43.9495Z" fill="#F9FAFB"/>
<path d="M50.6413 30.6182C50.8553 30.6182 51.0028 30.7856 50.9694 30.9922C50.9361 31.1996 50.7353 31.3671 50.5213 31.3671H45.5042L45.4531 30.6182H50.6413Z" fill="#D0D5DD"/>
<path d="M50.5218 31.5161H45.5048C45.427 31.5161 45.3626 31.4561 45.3567 31.3783L45.3055 30.6295C45.3026 30.5887 45.3174 30.548 45.3448 30.5183C45.373 30.4887 45.4122 30.4717 45.453 30.4717H50.6404C50.7878 30.4717 50.9233 30.5317 51.013 30.6369C51.1018 30.7406 51.1381 30.8761 51.1152 31.0176C51.0707 31.2961 50.81 31.5161 50.5218 31.5161ZM45.6426 31.2198H50.5211C50.6626 31.2198 50.8011 31.105 50.8226 30.9695C50.8315 30.9146 50.8189 30.8643 50.7878 30.8272C50.7544 30.788 50.7018 30.7665 50.6411 30.7665H45.6122L45.6426 31.2198Z" fill="#D0D5DD"/>
<path d="M50.0322 34.4346C50.2463 34.4346 50.3937 34.602 50.3603 34.8086C50.327 35.0161 50.1263 35.1835 49.9122 35.1835H43.0966L43.0381 34.5331C43.0359 34.5005 43.0352 34.4672 43.0352 34.4346H50.0322Z" fill="#D0D5DD"/>
<path d="M49.9129 35.3318H43.0973C43.021 35.3318 42.9566 35.2733 42.9499 35.197L42.8914 34.5466C42.8884 34.5066 42.8877 34.4696 42.8885 34.4325C42.8899 34.3518 42.9559 34.2866 43.0366 34.2866H50.0336C50.181 34.2866 50.3166 34.3466 50.4062 34.4518C50.4951 34.5555 50.5314 34.6911 50.5084 34.8325C50.4625 35.1125 50.2018 35.3318 49.9129 35.3318ZM43.2322 35.0355H49.9129C50.0544 35.0355 50.1929 34.9207 50.2144 34.7851C50.2233 34.7303 50.2107 34.68 50.1796 34.6429C50.1462 34.6037 50.0936 34.5822 50.0329 34.5822H43.1922L43.2322 35.0355Z" fill="#D0D5DD"/>
<path d="M49.4241 38.2505C49.6382 38.2505 49.7856 38.4179 49.7523 38.6246C49.719 38.832 49.5182 38.9994 49.3041 38.9994H43.4419L43.3745 38.2505H49.4241Z" fill="#D0D5DD"/>
<path d="M49.3042 39.1477H43.442C43.3657 39.1477 43.3012 39.0892 43.2946 39.0129L43.2271 38.264C43.2234 38.2225 43.2375 38.1818 43.2657 38.1507C43.2938 38.1203 43.3338 38.1025 43.3753 38.1025H49.4249C49.5723 38.1025 49.7079 38.1625 49.7975 38.2677C49.8864 38.3714 49.9227 38.507 49.8997 38.6485C49.8538 38.9285 49.5931 39.1477 49.3042 39.1477ZM43.5775 38.8514H49.3042C49.4457 38.8514 49.5842 38.7366 49.6057 38.6011C49.6145 38.5462 49.602 38.4959 49.5701 38.4588C49.5368 38.4196 49.4842 38.3981 49.4234 38.3981H43.5368L43.5775 38.8514Z" fill="#D0D5DD"/>
<path d="M48.8153 42.0669C49.0294 42.0669 49.1768 42.2336 49.1434 42.441C49.1108 42.6476 48.9101 42.815 48.696 42.815H43.7871L43.7197 42.0669H48.8153Z" fill="#D0D5DD"/>
<path d="M48.6961 42.9634H43.7872C43.7109 42.9634 43.6464 42.9049 43.6398 42.8286L43.5724 42.0804C43.5687 42.0389 43.5827 41.9982 43.6109 41.9671C43.639 41.9367 43.679 41.9189 43.7205 41.9189H48.8161C48.9635 41.9189 49.099 41.9789 49.1887 42.0834C49.2768 42.1871 49.3131 42.3227 49.2909 42.4641C49.2457 42.7441 48.9842 42.9634 48.6961 42.9634ZM43.9227 42.6671H48.6961C48.8375 42.6671 48.9761 42.553 48.9975 42.4175C49.0064 42.3619 48.9946 42.313 48.9627 42.2752C48.9294 42.236 48.8768 42.2145 48.8153 42.2145H43.882L43.9227 42.6671Z" fill="#D0D5DD"/>
<path d="M56.0907 24.7803L57.6922 26.9632L53.7699 51.5573L52.1685 49.3736L56.0907 24.7803Z" fill="#E4E7EC"/>
<path d="M53.77 51.7056C53.7233 51.7056 53.6789 51.6834 53.6507 51.6449L52.0492 49.4612C52.0255 49.4293 52.0159 49.3893 52.0226 49.3501L55.9448 24.7567C55.9544 24.6975 55.9981 24.6501 56.0559 24.636C56.1137 24.6219 56.1752 24.6442 56.21 24.6923L57.8115 26.876C57.8352 26.9079 57.8448 26.9479 57.8381 26.9871L53.9159 51.5805C53.9063 51.6397 53.8626 51.6871 53.8048 51.7012C53.7929 51.7042 53.7818 51.7056 53.77 51.7056ZM52.3248 49.336L53.6796 51.1834L57.5366 27.0012L56.1818 25.1538L52.3248 49.336Z" fill="#F9FAFB"/>
<path d="M52.1685 49.3735L44.8647 55.4802L45.8381 49.3735H52.1685Z" fill="#D0D5DD"/>
<path d="M44.8648 55.6285C44.8396 55.6285 44.8144 55.6219 44.7915 55.6093C44.7374 55.5789 44.7085 55.5182 44.7181 55.4574L45.6922 49.3508C45.7033 49.2789 45.7655 49.2256 45.8389 49.2256H52.1693C52.2315 49.2256 52.287 49.2648 52.3085 49.3234C52.33 49.3819 52.3122 49.4478 52.2641 49.4878L44.9604 55.5945C44.9322 55.6174 44.8981 55.6285 44.8648 55.6285ZM45.9648 49.5219L45.073 55.113L51.7604 49.5219H45.9648Z" fill="#F9FAFB"/>
<path d="M52.1685 49.374L53.7699 51.5577L46.4655 57.6644L44.8647 55.4807L52.1685 49.374Z" fill="#D0D5DD"/>
<path d="M46.4656 57.8124C46.4597 57.8124 46.4538 57.8124 46.4478 57.8117C46.4071 57.8065 46.3708 57.785 46.3464 57.7524L44.7449 55.5687C44.699 55.5057 44.7093 55.4176 44.7693 55.3672L52.073 49.2606C52.1041 49.2346 52.1449 49.222 52.1856 49.2272C52.2264 49.2324 52.2627 49.2539 52.2871 49.2865L53.8886 51.4702C53.9345 51.5331 53.9241 51.6213 53.8641 51.6717L46.5612 57.7776C46.5345 57.8006 46.5004 57.8124 46.4656 57.8124ZM45.0664 55.505L46.4923 57.4487L53.5686 51.5324L52.1427 49.5887L45.0664 55.505Z" fill="#F9FAFB"/>
<path d="M44.8652 55.4805L46.4659 57.6642L44.7378 55.5864L44.8652 55.4805Z" fill="#E4E7EC"/>
<path d="M46.4666 57.8122C46.4243 57.8122 46.3821 57.7937 46.3525 57.7589L44.6243 55.6811C44.5991 55.6507 44.5873 55.6122 44.591 55.5729C44.5947 55.5337 44.614 55.4974 44.6436 55.4729L44.7703 55.3677C44.8014 55.3418 44.8428 55.33 44.8828 55.3344C44.9236 55.3396 44.9599 55.3611 44.9843 55.3937L46.5858 57.5766C46.6332 57.6411 46.6206 57.7314 46.5577 57.7811C46.5303 57.8018 46.4984 57.8122 46.4666 57.8122Z" fill="#F9FAFB"/>
<path d="M44.7373 55.5864L46.4655 57.6642L45.6396 57.7694L44.0381 55.5864H44.7373Z" fill="#E4E7EC"/>
<path d="M45.6396 57.9178C45.5929 57.9178 45.5485 57.8955 45.5203 57.857L43.9188 55.6733C43.8855 55.6281 43.8811 55.5689 43.9063 55.5185C43.9314 55.4689 43.9825 55.437 44.0381 55.437H44.7374C44.7811 55.437 44.8233 55.4563 44.8514 55.4903L46.5796 57.5681C46.6144 57.6096 46.6233 57.6666 46.6033 57.717C46.5833 57.7674 46.5381 57.8029 46.484 57.8096L45.6574 57.9148C45.6522 57.917 45.6455 57.9178 45.6396 57.9178ZM44.3307 55.7348L45.7077 57.6118L46.1796 57.5518L44.6685 55.7348H44.3307Z" fill="#F9FAFB"/>
<path d="M44.2616 55.4341C44.2283 55.4607 44.1935 55.4867 44.1579 55.5111C44.1209 55.5363 44.0824 55.5607 44.0431 55.583C44.0409 55.5845 44.0394 55.5852 44.0372 55.5867C43.9957 55.6104 43.9535 55.6319 43.9098 55.6511C43.8542 55.6763 43.7964 55.6985 43.7379 55.717C43.6868 55.7333 43.635 55.7467 43.5824 55.7578L26.9994 59.157C26.9016 59.177 26.8053 59.1867 26.712 59.1867C26.3268 59.1867 25.9913 59.0215 25.7905 58.7467L27.392 60.9296C27.5935 61.2045 27.9283 61.3696 28.3135 61.3696C28.4068 61.3696 28.5031 61.36 28.6009 61.34L45.1839 57.9408C45.2365 57.9296 45.289 57.9163 45.3394 57.9C45.3979 57.8815 45.4557 57.8593 45.5113 57.8341C45.555 57.8141 45.5972 57.7926 45.6387 57.7696C45.6409 57.7682 45.6424 57.7674 45.6446 57.7659C45.6839 57.7437 45.7224 57.7193 45.7594 57.6941C45.795 57.6696 45.8298 57.6437 45.8631 57.617L44.2616 55.4341Z" fill="#667185"/>
<path d="M28.3136 61.5177C27.8855 61.5177 27.5055 61.3355 27.2721 61.0177L25.6707 58.834C25.6225 58.7681 25.6366 58.6755 25.7025 58.6266C25.7684 58.5785 25.861 58.5925 25.9099 58.6585L25.9107 58.6592C26.0877 58.8992 26.3796 59.0377 26.7121 59.0377C26.7966 59.0377 26.8833 59.0288 26.9699 59.0111L43.5529 55.6118C43.6003 55.6022 43.6477 55.5896 43.6936 55.5748C43.7462 55.5577 43.7988 55.5377 43.8492 55.5148C43.8884 55.497 43.927 55.477 43.9647 55.4562C44.0055 55.4333 44.041 55.4111 44.0744 55.3881C44.1062 55.3659 44.1381 55.3429 44.1684 55.3177C44.2003 55.2925 44.2403 55.2807 44.2803 55.2859C44.3203 55.2911 44.3566 55.3125 44.381 55.3451L45.9825 57.5281C46.0292 57.5918 46.0181 57.6807 45.9566 57.7311C45.9203 57.7607 45.8825 57.7888 45.844 57.8155C45.8033 57.8436 45.761 57.8703 45.7188 57.894L45.7121 57.8977C45.667 57.9229 45.6203 57.9466 45.5729 57.9681C45.5121 57.9955 45.4484 58.0199 45.3847 58.0399C45.3284 58.0577 45.2714 58.0725 45.2136 58.0844L28.6307 61.4836C28.5247 61.5066 28.4181 61.5177 28.3136 61.5177ZM26.3766 59.2948L27.5114 60.8422C27.6884 61.0829 27.9803 61.2214 28.3136 61.2214C28.3981 61.2214 28.4847 61.2125 28.5714 61.1948L45.1544 57.7955C45.2018 57.7859 45.2492 57.7733 45.2951 57.7585C45.3477 57.7414 45.4003 57.7214 45.4507 57.6985C45.4899 57.6807 45.5292 57.6607 45.5662 57.6399C45.5988 57.6214 45.6284 57.6036 45.6558 57.5851L44.2299 55.6407C44.1936 55.6651 44.1551 55.6888 44.1173 55.711C44.1166 55.711 44.1099 55.7148 44.1099 55.7155C44.0655 55.7407 44.0188 55.7644 43.9714 55.7859C43.9107 55.8133 43.847 55.8377 43.7833 55.8577C43.727 55.8755 43.6699 55.8903 43.6121 55.9022L27.0292 59.3014C26.8062 59.3473 26.5803 59.3444 26.3766 59.2948Z" fill="#F9FAFB"/>
<path d="M44.8192 54.2261C44.8681 54.7639 44.5385 55.3031 44.0385 55.5854C43.8985 55.6646 43.7452 55.7231 43.5837 55.7565L27.0007 59.1557C26.903 59.1757 26.8067 59.1854 26.7133 59.1854C26.1185 59.1854 25.6444 58.792 25.5948 58.2105L23.3104 31.2668C23.2637 30.5854 23.8185 29.9105 24.5496 29.7609L31.4118 28.3542L38.2059 26.9617L38.5089 31.4024C38.5326 31.7402 38.6822 32.0268 38.9111 32.2276C39.1407 32.4276 39.4504 32.5431 39.7963 32.5439C39.9037 32.5439 40.0141 32.532 40.1267 32.5091C40.4889 32.435 40.8163 32.2468 41.0644 31.995C41.3118 31.7431 41.4829 31.4261 41.5363 31.0913C41.5526 30.9883 41.5578 30.8831 41.5504 30.7787L41.2474 26.3387L41.8118 26.2231L41.9992 28.9757C42.0067 29.0854 42.0955 29.1594 42.2074 29.1594C42.3955 29.1261 42.4985 29.0009 42.4896 28.875L42.3015 26.1224L42.4622 26.0898L43.7844 25.8187C43.8822 25.7987 43.9785 25.7891 44.0718 25.7891C44.6741 25.7891 45.1518 26.192 45.1911 26.7824L45.4533 30.6187L45.5044 31.3676L45.5148 31.5224C45.5615 32.2039 45.0066 32.878 44.2763 33.0276C43.5815 33.1705 43.0452 33.7876 43.0355 34.4342C43.0348 34.4668 43.0355 34.5002 43.0385 34.5328L43.097 35.1831L43.3741 38.2498L43.4415 38.9987L43.7185 42.0654L43.7859 42.8135L44.8192 54.2261Z" fill="#D0D5DD"/>
<path d="M26.7131 59.3337C26.0339 59.3337 25.502 58.867 25.4472 58.2233L23.1627 31.2796C23.1109 30.5256 23.7198 29.7804 24.5198 29.6159L38.1761 26.8174C38.2183 26.8085 38.2613 26.8189 38.2953 26.8448C38.3294 26.8707 38.3509 26.91 38.3531 26.953L38.6561 31.3937C38.6761 31.6796 38.8013 31.9367 39.0079 32.1174C39.2139 32.2967 39.4939 32.3959 39.7961 32.3967C39.8916 32.3967 39.9931 32.3863 40.0968 32.3648C40.4161 32.2996 40.722 32.1315 40.9583 31.8922C41.1894 31.6574 41.342 31.3648 41.3894 31.0693C41.4042 30.9744 41.4087 30.8811 41.402 30.7907L41.099 26.3493C41.0939 26.2752 41.1442 26.2093 41.2168 26.1937L41.7813 26.0781C41.8227 26.0693 41.8664 26.0796 41.9005 26.1056C41.9346 26.1315 41.9561 26.1707 41.9583 26.2137L42.1464 28.9663C42.1487 29.0004 42.1768 29.0093 42.1961 29.0115C42.2961 28.99 42.345 28.933 42.3413 28.8863L42.1531 26.1337C42.1479 26.0596 42.1983 25.9937 42.2709 25.9781L43.7539 25.6737C43.8605 25.6522 43.9672 25.6411 44.0709 25.6411C44.7613 25.6411 45.2939 26.1167 45.3383 26.7722L45.662 31.513C45.7139 32.2641 45.105 33.0093 44.305 33.1737C43.6842 33.3011 43.1916 33.8559 43.1827 34.4374C43.182 34.4663 43.1827 34.4944 43.185 34.5233L44.965 54.2137C45.0176 54.793 44.6739 55.3967 44.1094 55.7152C43.9524 55.8041 43.785 55.867 43.6116 55.9026L27.0287 59.3019C26.9242 59.3226 26.8176 59.3337 26.7131 59.3337ZM38.0687 27.1419L24.5783 29.9063C23.9183 30.0419 23.4153 30.6478 23.4576 31.2574L25.742 58.1989C25.7842 58.693 26.1835 59.0381 26.7131 59.0381C26.7976 59.0381 26.8842 59.0293 26.9709 59.0115L43.5539 55.6122C43.6968 55.5826 43.8353 55.5307 43.9657 55.4574C44.4302 55.1952 44.7139 54.7063 44.6716 54.2404L42.8909 34.547C42.8879 34.507 42.8872 34.47 42.8879 34.433C42.899 33.7063 43.4835 33.0404 44.2472 32.8833C44.9072 32.7478 45.4102 32.1426 45.3679 31.5337L45.0442 26.793C45.0102 26.2893 44.6109 25.9382 44.0724 25.9382C43.9879 25.9382 43.9013 25.947 43.8146 25.9648L42.4583 26.2433L42.6376 28.8663C42.6524 29.0774 42.4827 29.2626 42.2331 29.3063C42.225 29.3078 42.2161 29.3085 42.2072 29.3085C42.0139 29.3085 41.8635 29.173 41.8509 28.9863L41.6746 26.4026L41.4027 26.4582L41.6968 30.7693C41.705 30.8811 41.6998 30.9981 41.6813 31.1152C41.6242 31.4707 41.4427 31.8204 41.1687 32.0989C40.8916 32.3804 40.5316 32.5774 40.1553 32.6544C40.0316 32.6796 39.9102 32.6922 39.7953 32.6922C39.4213 32.6915 39.0724 32.5663 38.8124 32.3396C38.5457 32.1063 38.385 31.7774 38.3598 31.413L38.0687 27.1419Z" fill="#F9FAFB"/>
<path d="M39.7953 32.6925C39.422 32.6917 39.0731 32.5665 38.8131 32.3399C38.5464 32.1065 38.3857 31.7776 38.3605 31.4132L37.8768 24.3295C37.8664 24.1799 37.8731 24.0265 37.8975 23.8747C37.9723 23.4051 38.2123 22.9443 38.5738 22.5776C38.939 22.2058 39.4146 21.9451 39.9131 21.8428C40.0731 21.8102 40.2323 21.7939 40.3872 21.7939C40.8775 21.7939 41.336 21.9584 41.6775 22.2562C42.0272 22.5614 42.2375 22.9925 42.2686 23.4695L42.6375 28.8651C42.6516 29.0658 42.499 29.2562 42.2901 29.2991C42.262 29.3043 42.2346 29.3073 42.2079 29.3073C42.0146 29.3073 41.8649 29.1717 41.8516 28.9851L41.4835 23.5895C41.4627 23.291 41.3383 23.0339 41.1227 22.8458C40.9101 22.6599 40.6227 22.5576 40.3123 22.5576C40.2123 22.5576 40.1086 22.5688 40.0035 22.5902C39.6709 22.6584 39.3649 22.8265 39.119 23.0762C38.882 23.3169 38.7249 23.6169 38.6768 23.9206C38.6612 24.0184 38.6568 24.1154 38.6635 24.2073L39.1472 31.291C39.1597 31.4747 39.236 31.6332 39.3686 31.7495C39.5005 31.8636 39.679 31.9265 39.8709 31.9265C39.9338 31.9265 39.9997 31.9199 40.0657 31.9065C40.276 31.8628 40.4694 31.7562 40.6249 31.5991C40.7738 31.4473 40.8731 31.2584 40.9035 31.068C40.9131 31.0095 40.916 30.9488 40.9123 30.888L40.4501 24.1265C40.4449 24.0569 40.4175 23.9984 40.3672 23.9547C40.3168 23.911 40.2472 23.8858 40.1723 23.8858C40.1457 23.8865 40.1175 23.8895 40.0909 23.8947C40.0034 23.9132 39.9227 23.9576 39.8583 24.0236C39.7953 24.0873 39.7546 24.1643 39.742 24.2414C39.7383 24.2628 39.7375 24.2873 39.739 24.3117L40.0509 28.8776C40.0649 29.0784 39.9116 29.2688 39.7035 29.3117C39.676 29.3176 39.6479 29.3206 39.6205 29.3206C39.4272 29.3206 39.2783 29.1851 39.2649 28.9984L38.9531 24.4332C38.9479 24.3569 38.9516 24.2769 38.9642 24.1947C39.0027 23.9517 39.1272 23.7132 39.3131 23.5243C39.499 23.3339 39.7435 23.1999 40.0005 23.1465C40.0857 23.1302 40.1679 23.1214 40.2464 23.1214C40.5027 23.1214 40.742 23.208 40.922 23.3643C41.1072 23.5251 41.2183 23.7525 41.2353 24.0043L41.6968 30.7673C41.7049 30.8791 41.6997 30.9962 41.6812 31.1132C41.6249 31.4688 41.4427 31.8184 41.1686 32.0969C40.8916 32.3776 40.5323 32.5754 40.1553 32.6525C40.0323 32.6799 39.9109 32.6925 39.7953 32.6925Z" fill="#D0D5DD"/>
<path d="M40.3864 21.9428C40.8531 21.9428 41.2701 22.0983 41.5797 22.3687C41.8886 22.6383 42.0909 23.0235 42.1205 23.4806L42.2094 24.7813L42.3012 26.1243L42.4894 28.8769C42.4983 29.002 42.3953 29.128 42.2597 29.1561C42.242 29.1598 42.2242 29.1613 42.2072 29.1613C42.0953 29.1613 42.0064 29.0872 41.999 28.9776L41.8116 26.225L41.7131 24.782L41.6309 23.582C41.6072 23.2331 41.4553 22.942 41.2197 22.7369C40.9842 22.5309 40.6657 22.4124 40.3123 22.4124C40.2034 22.4124 40.0894 22.4243 39.9738 22.448C39.6005 22.525 39.2686 22.7161 39.0131 22.9746C38.7583 23.2332 38.5842 23.5583 38.5301 23.8998C38.5131 24.005 38.5072 24.1132 38.5153 24.2206L38.5538 24.782L38.696 26.8635L38.999 31.3035C39.0146 31.5346 39.1153 31.7265 39.2709 31.8628C39.4271 31.9983 39.6375 32.0769 39.8709 32.0769C39.9434 32.0769 40.019 32.0694 40.0946 32.0539C40.342 32.0028 40.5612 31.8761 40.7301 31.705C40.8983 31.5339 41.0138 31.3191 41.0494 31.0932C41.0605 31.0235 41.0642 30.9524 41.0597 30.8806L40.756 26.4406L40.6427 24.7813L40.5975 24.1183C40.5894 24.0043 40.5405 23.9117 40.4642 23.845C40.3872 23.7783 40.2849 23.7398 40.1716 23.7398C40.1353 23.7406 40.099 23.7443 40.0612 23.7517C39.9397 23.7769 39.8346 23.8376 39.7516 23.922C39.6694 24.0057 39.6123 24.1109 39.5946 24.2206C39.5894 24.2546 39.5879 24.2894 39.5901 24.3243L39.6212 24.782L39.7486 26.6472L39.902 28.8902C39.9109 29.0169 39.8079 29.1413 39.6723 29.1694C39.6538 29.1732 39.636 29.1746 39.619 29.1746C39.5072 29.1746 39.419 29.0998 39.4116 28.9902L39.2583 26.7472L39.1242 24.7813L39.0997 24.425C39.0946 24.3569 39.099 24.288 39.1094 24.2206C39.1442 24.002 39.256 23.7946 39.4175 23.6309C39.5783 23.4665 39.7931 23.3435 40.0294 23.2946C40.1027 23.2806 40.1746 23.2724 40.2449 23.2724C40.4716 23.2724 40.6731 23.348 40.8227 23.4791C40.9731 23.6094 41.0709 23.7969 41.0857 24.0176L41.1375 24.782L41.2442 26.3406L41.5472 30.7806C41.5553 30.885 41.5494 30.9902 41.5331 31.0932C41.4797 31.428 41.3086 31.7443 41.0612 31.9969C40.8131 32.2487 40.4857 32.4369 40.1234 32.5109C40.0109 32.5339 39.9005 32.5457 39.7931 32.5457C39.4472 32.545 39.1368 32.4294 38.9079 32.2294C38.6783 32.0287 38.5294 31.742 38.5057 31.4043L38.2049 26.9628L38.056 24.7806L38.0249 24.3198C38.0153 24.1791 38.022 24.0376 38.0442 23.8983C38.116 23.448 38.3457 23.0213 38.6797 22.682C39.0138 22.342 39.4546 22.0887 39.9427 21.9887C40.0931 21.9576 40.242 21.9428 40.3864 21.9428ZM40.3864 21.6465C40.222 21.6465 40.0531 21.6635 39.8834 21.6976C39.3553 21.8057 38.8531 22.0813 38.4672 22.4739C38.0849 22.862 37.8301 23.3509 37.7509 23.8509C37.7249 24.0139 37.7175 24.1783 37.7286 24.3398L37.7597 24.8006L37.9086 26.9828L38.2116 31.4235C38.2405 31.828 38.419 32.1924 38.7146 32.4517C39.002 32.702 39.3849 32.8398 39.7946 32.8413C39.9205 32.8413 40.0516 32.828 40.1842 32.8006C40.5901 32.7176 40.9775 32.5057 41.2746 32.2043C41.5701 31.9035 41.7664 31.525 41.8279 31.1398C41.8486 31.0109 41.8538 30.8828 41.8449 30.7583L41.7346 29.1398C41.8064 29.328 41.9894 29.4569 42.2072 29.4569C42.2434 29.4569 42.2805 29.4531 42.3175 29.4457C42.5997 29.388 42.8042 29.1287 42.7849 28.8554L42.5968 26.1035L42.5049 24.7606L42.416 23.4598C42.382 22.9435 42.1538 22.4761 41.7746 22.145C41.4057 21.8235 40.9123 21.6465 40.3864 21.6465ZM38.8116 24.2183L38.8101 24.1991C38.8042 24.1161 38.8079 24.0317 38.822 23.945C38.8657 23.6709 39.0086 23.3998 39.2234 23.1806C39.4486 22.9524 39.7286 22.7991 40.0323 22.7361C40.1279 22.7169 40.2212 22.7065 40.3116 22.7065C40.5857 22.7065 40.839 22.7961 41.0242 22.9576C41.2101 23.1198 41.3175 23.342 41.3346 23.5998L41.3464 23.7783C41.2916 23.5746 41.179 23.3924 41.0183 23.2532C40.8123 23.0732 40.5383 22.9739 40.2464 22.9739C40.1583 22.9739 40.0664 22.9828 39.9738 23.0013C39.6849 23.0613 39.4138 23.2094 39.2072 23.4213C38.9997 23.6317 38.862 23.8983 38.8183 24.1717C38.816 24.188 38.8138 24.2028 38.8116 24.2183ZM39.6205 29.4694C39.6575 29.4694 39.696 29.4657 39.7331 29.4576C40.0131 29.3998 40.2175 29.1413 40.199 28.868L40.0457 26.625L39.9183 24.7598L39.8871 24.302C39.8864 24.2887 39.8864 24.2761 39.8886 24.265C39.896 24.2191 39.9234 24.1687 39.9634 24.128C40.0079 24.082 40.0627 24.0524 40.1227 24.0398C40.1375 24.0369 40.1553 24.0346 40.1753 24.0346C40.2138 24.0354 40.2464 24.0465 40.2709 24.0672C40.2901 24.0843 40.3005 24.1065 40.3027 24.1376L40.3479 24.7998L40.4612 26.4591L40.7649 30.8991C40.7679 30.9465 40.7657 30.9961 40.7575 31.045C40.7323 31.205 40.6472 31.3657 40.519 31.4961C40.3849 31.6324 40.2168 31.7243 40.0346 31.7628C39.9805 31.7739 39.9242 31.7791 39.8709 31.7791C39.7146 31.7791 39.5701 31.7287 39.4649 31.6376C39.3642 31.5487 39.3049 31.4257 39.2946 31.282L39.1494 29.1539C39.2205 29.3413 39.4034 29.4694 39.6205 29.4694Z" fill="#F9FAFB"/>
<path d="M61.4011 23.8267L61.547 24.74C61.6351 25.2874 62.0107 25.7163 62.5514 25.8852L63.4544 26.1667L62.4618 26.4481C61.8677 26.617 61.3551 27.0459 61.0922 27.5933L60.6544 28.5067L60.5077 27.5933C60.4196 27.0459 60.044 26.617 59.5033 26.4481L58.6011 26.1667L59.5929 25.8852C60.187 25.7163 60.6996 25.2874 60.9626 24.74L61.4011 23.8267Z" fill="#D0D5DD"/>
<path d="M30.3371 20.2378L30.4489 20.9378C30.5164 21.3578 30.8045 21.6867 31.2193 21.8156L31.9112 22.0311L31.1504 22.2474C30.6949 22.3763 30.3015 22.7052 30.1001 23.1245L29.7645 23.8252L29.6527 23.1245C29.5852 22.7045 29.2971 22.3763 28.8823 22.2474L28.1904 22.0311L28.9512 21.8156C29.4067 21.6867 29.8001 21.3571 30.0015 20.9378L30.3371 20.2378Z" fill="#D0D5DD"/>
<path d="M49.2356 44.4712L49.2978 44.8616C49.3356 45.0949 49.4964 45.2786 49.7275 45.3504L50.1126 45.4704L49.6889 45.5904C49.4349 45.663 49.2156 45.846 49.103 46.0793L48.9156 46.4697L48.8534 46.0793C48.8156 45.846 48.6556 45.6623 48.4245 45.5904L48.0386 45.4704L48.463 45.3504C48.7171 45.2779 48.9356 45.0949 49.0482 44.8616L49.2356 44.4712Z" fill="#D0D5DD"/>
<path d="M21.1672 49.7007L21.2295 50.0911C21.2672 50.3251 21.428 50.5081 21.6591 50.5799L22.0443 50.6999L21.6206 50.8199C21.3665 50.8925 21.1472 51.0755 21.0346 51.3096L20.848 51.6999L20.7858 51.3096C20.7487 51.0755 20.588 50.8925 20.3569 50.8199L19.9717 50.6999L20.3954 50.5799C20.6495 50.5081 20.8687 50.3251 20.9806 50.0911L21.1672 49.7007Z" fill="#D0D5DD"/>
</g>
</svg>
