<svg width="150" height="150" viewBox="0 0 150 150" fill="none" xmlns="http://www.w3.org/2000/svg">
<path d="M75 121.99C103.319 121.99 126.276 112.984 126.276 101.875C126.276 90.7656 103.319 81.7597 75 81.7597C46.6809 81.7597 23.7236 90.7656 23.7236 101.875C23.7236 112.984 46.6809 121.99 75 121.99Z" fill="#EBB3C6"/>
<path d="M41.7626 89.2292C41.457 88.7333 40.807 88.5792 40.3098 88.8847L39.4112 89.4389L38.857 88.5403C38.5515 88.0444 37.9015 87.8903 37.4042 88.1958C36.9084 88.5014 36.7542 89.1514 37.0598 89.6486L37.614 90.5472L38.7223 92.3444L40.5195 91.2361L41.4181 90.6819C41.914 90.375 42.0681 89.725 41.7626 89.2292Z" fill="#CC3C6C"/>
<path d="M43.9018 53.8209H39.9365L44.2004 51.9473L43.9018 53.8209Z" fill="#CC3C6C"/>
<path d="M43.9016 54.1333H39.9364C39.7891 54.1333 39.6614 54.0292 39.6308 53.8847C39.6002 53.7403 39.6752 53.5945 39.8114 53.5347L44.0752 51.6625C44.1794 51.6167 44.3016 51.632 44.3919 51.7014C44.4822 51.7708 44.528 51.8847 44.51 51.9986L44.2114 53.8708C44.185 54.0208 44.0544 54.1333 43.9016 54.1333ZM41.4239 53.5083H43.6336L43.8002 52.4653L41.4239 53.5083Z" fill="#EBB3C6"/>
<path d="M97.2183 30.6306L93.8489 51.7625L93.5197 53.8208L93.1128 56.3736L94.7086 55.4417L96.8156 58.3139L97.1434 56.2556L100.514 35.1236L97.2183 30.6306Z" fill="#EBB3C6"/>
<path d="M96.8155 58.6264C96.7169 58.6264 96.6238 58.5806 96.5641 58.4986L94.6238 55.8528L93.271 56.6431C93.1669 56.7042 93.0363 56.7 92.9363 56.6306C92.8363 56.5611 92.7849 56.4431 92.8044 56.3236L96.9099 30.5806C96.9294 30.4556 97.0224 30.3556 97.1446 30.3264C97.2669 30.2972 97.396 30.3431 97.4696 30.4458L100.765 34.9389C100.815 35.0056 100.835 35.0903 100.822 35.1736L97.1238 58.3639C97.1044 58.4889 97.0113 58.5889 96.8891 58.6181C96.8641 58.6236 96.8405 58.6264 96.8155 58.6264ZM94.7085 55.1292C94.8057 55.1292 94.9002 55.1736 94.9613 55.2569L96.6252 57.5264L100.185 35.2042L97.4085 31.4194L93.5252 55.7708L94.5502 55.1708C94.6002 55.1431 94.6544 55.1292 94.7085 55.1292Z" fill="#EBB3C6"/>
<path d="M39.9331 53.8209H43.9012L43.4928 56.3778L39.9331 53.8209Z" fill="#E28FAA"/>
<path d="M43.493 56.6903C43.4292 56.6903 43.3653 56.6709 43.3111 56.632L39.7514 54.075C39.6417 53.9959 39.5944 53.8542 39.6361 53.725C39.6778 53.5959 39.7972 53.5084 39.9333 53.5084H43.9C43.9917 53.5084 44.0778 53.5486 44.1375 53.6181C44.1972 53.6875 44.2222 53.7792 44.2083 53.8695L43.8 56.4264C43.7833 56.5334 43.7111 56.6236 43.6111 56.6653C43.575 56.682 43.5333 56.6903 43.493 56.6903ZM40.9042 54.1334L43.2639 55.8278L43.5347 54.1334H40.9042Z" fill="#EBB3C6"/>
<path d="M97.2182 30.6306L93.8487 51.7625L93.5196 53.8208L93.1126 56.3736L71.7293 68.8722H62.9098L62.7015 70.1778L43.4932 56.3778L43.9015 53.8208L44.2001 51.9472L45.5598 43.4153H58.5876L60.5918 30.8472L60.8529 30.6306H97.2182Z" fill="#EBB3C6"/>
<path d="M62.0028 74.5569L59.3945 90.9125H34.0181L52.5597 80.0764L62.0028 74.5569Z" fill="#CC3C6C"/>
<path d="M59.3945 90.9125L62.6903 95.4055H37.3139L34.0181 90.9125H59.3945Z" fill="#E28FAA"/>
<path d="M63.3069 95.718H37.1555L33.4014 90.6H59.5528L63.3069 95.718ZM37.4722 95.093H62.0736L59.2361 91.225H34.6347L37.4722 95.093Z" fill="#EBB3C6"/>
<path d="M97.482 53.8208L100.778 58.3139L98.3764 73.3652L95.0806 68.8722L97.482 53.8208Z" fill="#E28FAA"/>
<path d="M98.3764 73.6777C98.2778 73.6777 98.1847 73.6319 98.125 73.55L94.8292 69.0569C94.7792 68.9902 94.7597 68.9055 94.7722 68.8222L97.1722 53.7708C97.1917 53.6458 97.2847 53.5458 97.407 53.5166C97.5292 53.4875 97.6583 53.5333 97.732 53.6361L101.028 58.1291C101.078 58.1958 101.097 58.2805 101.085 58.3639L98.6847 73.4153C98.6653 73.5403 98.5722 73.6402 98.45 73.6694C98.4264 73.675 98.4014 73.6777 98.3764 73.6777ZM95.4097 68.793L98.1861 72.5778L100.449 58.3944L97.6722 54.6097L95.4097 68.793Z" fill="#EBB3C6"/>
<path d="M111.396 68.8722L114.692 73.3652L109.847 103.737L106.551 99.2444L111.396 68.8722Z" fill="#E28FAA"/>
<path d="M109.847 104.05C109.748 104.05 109.655 104.004 109.596 103.922L106.3 99.4291C106.25 99.3625 106.23 99.2778 106.243 99.1944L111.087 68.8222C111.107 68.6972 111.2 68.5972 111.322 68.568C111.444 68.5389 111.573 68.5847 111.647 68.6875L114.943 73.1805C114.993 73.2472 115.012 73.3319 115 73.4153L110.155 103.787C110.136 103.912 110.043 104.012 109.921 104.042C109.897 104.047 109.872 104.05 109.847 104.05ZM106.88 99.1653L109.657 102.95L114.362 73.4458L111.586 69.6611L106.88 99.1653Z" fill="#EBB3C6"/>
<path d="M97.375 99.2444L97.1861 100.428L95.9458 108.203L99.2416 112.697L100.482 104.921L100.671 103.737L97.375 99.2444Z" fill="#E28FAA"/>
<path d="M99.2416 113.01C99.143 113.01 99.05 112.964 98.9902 112.882L95.6944 108.388C95.6444 108.321 95.625 108.236 95.6375 108.153L97.0666 99.1945C97.0861 99.0695 97.1791 98.9695 97.3014 98.9403C97.4236 98.9111 97.5527 98.957 97.6263 99.0597L100.922 103.553C100.972 103.619 100.992 103.704 100.979 103.788L99.55 112.746C99.5305 112.871 99.4375 112.971 99.3152 113C99.2902 113.007 99.2666 113.01 99.2416 113.01ZM96.275 108.124L99.0514 111.908L100.342 103.818L97.5652 100.033L96.275 108.124Z" fill="#EBB3C6"/>
<path d="M88.0874 99.2444L89.1263 100.428L95.9457 108.203L97.186 100.428L97.3749 99.2444H88.0874Z" fill="#E28FAA"/>
<path d="M95.9459 108.515C95.857 108.515 95.7708 108.478 95.7111 108.408L87.8528 99.45C87.7722 99.3583 87.7528 99.2264 87.8028 99.1153C87.8528 99.0042 87.9653 98.9319 88.0875 98.9319H97.3736C97.4653 98.9319 97.5514 98.9722 97.6111 99.0417C97.6708 99.1111 97.6958 99.2028 97.682 99.2931L96.2528 108.251C96.2334 108.371 96.1472 108.469 96.0306 108.503C96.0042 108.512 95.975 108.515 95.9459 108.515ZM88.7778 99.5569L95.7417 107.497L97.0084 99.5569H88.7778Z" fill="#EBB3C6"/>
<path d="M39.9333 53.8209L43.4931 56.3778L62.7014 70.1778L62.0028 74.557L52.5597 80.0764L34.0181 90.9125L39.9333 53.8209Z" fill="#CC3C6C"/>
<path d="M34.018 91.225C33.9568 91.225 33.8944 91.207 33.8416 91.1709C33.7416 91.1028 33.6902 90.9833 33.7096 90.8639L39.6249 53.7722C39.6416 53.6653 39.7138 53.575 39.8138 53.5334C39.9138 53.4917 40.0277 53.5042 40.1166 53.5681L62.8846 69.925C62.9805 69.9945 63.0291 70.1111 63.011 70.2278L62.3124 74.607C62.2971 74.7 62.243 74.7806 62.161 74.8278L34.1763 91.182C34.1263 91.2111 34.0721 91.225 34.018 91.225ZM40.1624 54.3695L34.4305 90.3097L61.718 74.3611L62.3624 70.3181L40.1624 54.3695Z" fill="#EBB3C6"/>
<path d="M97.4818 53.8209L95.0804 68.8723H71.729L97.4818 53.8209Z" fill="#CC3C6C"/>
<path d="M95.0803 69.1847H71.729C71.5873 69.1847 71.4637 69.0903 71.4276 68.9542C71.3915 68.8181 71.4498 68.6736 71.572 68.6028L97.3248 53.5514C97.429 53.4903 97.5595 53.4944 97.6595 53.5639C97.7595 53.6319 97.8109 53.7514 97.7915 53.8708L95.3887 68.9208C95.3651 69.0736 95.2345 69.1847 95.0803 69.1847ZM72.8831 68.5597H94.8137L97.0678 54.4236L72.8831 68.5597Z" fill="#EBB3C6"/>
<path d="M95.0807 68.8722H111.396L106.552 99.2444H97.3751H88.089H58.0654L59.3946 90.9125L62.0029 74.5569L62.7015 70.1777L62.9099 68.8722H71.7293H95.0807ZM98.489 86.5764C98.9321 86.5764 99.3446 86.2319 99.4127 85.8069C99.4807 85.3805 99.1779 85.0347 98.7349 85.0347H70.0182C69.5779 85.0347 69.164 85.3805 69.096 85.8069C69.0279 86.2319 69.3307 86.5764 69.771 86.5764H98.489ZM99.5863 79.693C100.029 79.693 100.442 79.3472 100.51 78.9208C100.578 78.4958 100.275 78.1514 99.8321 78.1514H71.1168C70.6765 78.1514 70.2627 78.4972 70.196 78.9208C70.1279 79.3472 70.4307 79.693 70.871 79.693H99.5863ZM97.3904 93.4597C97.8335 93.4597 98.246 93.1152 98.314 92.6875C98.3821 92.2625 98.0793 91.9166 97.6363 91.9166H80.9488C80.5057 91.9166 80.0932 92.2625 80.0251 92.6875C79.9571 93.1139 80.2599 93.4597 80.7029 93.4597H97.3904Z" fill="#E28FAA"/>
<path d="M106.552 99.5569H58.0655C57.9738 99.5569 57.8877 99.5166 57.828 99.4472C57.7683 99.3778 57.7433 99.2861 57.7572 99.1958L62.6016 68.8236C62.6252 68.6722 62.7572 68.5597 62.9099 68.5597H111.396C111.488 68.5597 111.574 68.6 111.634 68.6694C111.693 68.7389 111.718 68.8305 111.704 68.9208L106.86 99.293C106.836 99.4458 106.706 99.5569 106.552 99.5569ZM58.4322 98.9319H106.285L111.029 69.1847H63.1766L58.4322 98.9319ZM97.3905 93.7722H80.7016C80.396 93.7722 80.1141 93.6472 79.928 93.4305C79.7447 93.2153 79.6683 92.9333 79.7155 92.6389C79.8086 92.0597 80.3488 91.6055 80.9474 91.6055H97.6363C97.9419 91.6055 98.2238 91.7305 98.4099 91.9472C98.5933 92.1625 98.6697 92.443 98.6224 92.7361C98.5308 93.318 97.9891 93.7722 97.3905 93.7722ZM80.9488 92.2305C80.6599 92.2305 80.378 92.4625 80.3349 92.7375C80.3169 92.85 80.3419 92.95 80.4058 93.025C80.4738 93.1041 80.5794 93.1472 80.703 93.1472H97.3919C97.6808 93.1472 97.9627 92.9139 98.0072 92.6389C98.0252 92.5277 98.0002 92.4277 97.9363 92.3527C97.8683 92.2736 97.7627 92.2291 97.6377 92.2291H80.9488V92.2305ZM98.4891 86.8889H69.7724C69.4669 86.8889 69.1863 86.7639 69.0002 86.5472C68.8169 86.3319 68.7405 86.0514 68.7877 85.7569C68.8808 85.1764 69.4211 84.7222 70.0183 84.7222H98.7349C99.0405 84.7222 99.3224 84.8472 99.5085 85.0639C99.6919 85.2791 99.7683 85.5611 99.721 85.8555C99.628 86.4347 99.0877 86.8889 98.4891 86.8889ZM70.0183 85.3472C69.7294 85.3472 69.4488 85.5805 69.4058 85.8555C69.3877 85.9652 69.4127 86.068 69.4766 86.1416C69.5447 86.2208 69.6488 86.2639 69.7724 86.2639H98.4891C98.778 86.2639 99.0599 86.0319 99.103 85.7569C99.121 85.6444 99.0961 85.5444 99.0322 85.4694C98.9641 85.3902 98.8585 85.3472 98.7349 85.3472H70.0183ZM99.5863 80.0055H70.8697C70.5641 80.0055 70.2835 79.8805 70.0988 79.6639C69.9141 79.4486 69.8391 79.1666 69.8863 78.8722C69.9794 78.293 70.5197 77.8389 71.1169 77.8389H99.8335C100.139 77.8389 100.421 77.9639 100.607 78.1805C100.79 78.3958 100.867 78.6764 100.82 78.9694C100.727 79.5514 100.185 80.0055 99.5863 80.0055ZM71.1169 78.4639C70.828 78.4639 70.5474 78.6958 70.5044 78.9708C70.4863 79.0819 70.5113 79.1847 70.5752 79.2583C70.6419 79.3375 70.7474 79.3805 70.871 79.3805H99.5877C99.8766 79.3805 100.159 79.1472 100.203 78.8722C100.221 78.7611 100.196 78.6611 100.132 78.5875C100.064 78.5083 99.9585 78.4639 99.8335 78.4639H71.1169Z" fill="#EBB3C6"/>
<path d="M99.8321 78.1514C100.275 78.1514 100.578 78.4973 100.51 78.9209C100.442 79.3473 100.029 79.6931 99.5863 79.6931H70.8696C70.4293 79.6931 70.1266 79.3473 70.1946 78.9209C70.2627 78.4959 70.6752 78.1514 71.1155 78.1514H99.8321Z" fill="#CC3C6C"/>
<path d="M99.5863 80.0125H70.8696C70.5627 80.0125 70.2794 79.8875 70.0933 79.6681C69.9085 79.4514 69.8321 79.1681 69.8794 78.8709C69.9724 78.2889 70.5155 77.832 71.1155 77.832H99.8321C100.14 77.832 100.424 77.957 100.611 78.1764C100.796 78.3931 100.872 78.675 100.825 78.9709C100.732 79.5556 100.188 80.0125 99.5863 80.0125ZM71.1169 78.4709C70.8321 78.4709 70.5544 78.7 70.5099 78.9722C70.4919 79.0834 70.5169 79.1806 70.5794 79.2542C70.646 79.332 70.7488 79.3736 70.871 79.3736H99.5877C99.8738 79.3736 100.153 79.1431 100.196 78.8709C100.214 78.7611 100.189 78.6639 100.127 78.5903C100.06 78.5125 99.9557 78.4695 99.8335 78.4695H71.1169V78.4709Z" fill="#CC3C6C"/>
<path d="M98.7349 85.0347C99.178 85.0347 99.4808 85.3806 99.4127 85.807C99.3447 86.232 98.9322 86.5764 98.4891 86.5764H69.7724C69.3322 86.5764 69.0294 86.2306 69.0974 85.807C69.1655 85.3806 69.578 85.0347 70.0197 85.0347H98.7349Z" fill="#CC3C6C"/>
<path d="M98.4891 86.8944H69.7725C69.4655 86.8944 69.1822 86.7694 68.9961 86.55C68.8114 86.3333 68.735 86.05 68.7822 85.7555C68.8752 85.1722 69.4183 84.7153 70.0183 84.7153H98.735C99.0433 84.7153 99.3266 84.8403 99.5127 85.0597C99.6975 85.2764 99.7739 85.5597 99.7266 85.8569C99.6336 86.4389 99.0905 86.8944 98.4891 86.8944ZM70.0183 85.3528C69.7336 85.3528 69.4558 85.5833 69.4114 85.8555C69.3933 85.9653 69.4183 86.0625 69.4808 86.1361C69.5475 86.2139 69.6502 86.2569 69.7725 86.2569H98.4891C98.7752 86.2569 99.0544 86.0278 99.0975 85.7555C99.1155 85.6444 99.0905 85.5472 99.028 85.4736C98.9614 85.3958 98.8572 85.3528 98.735 85.3528H70.0183Z" fill="#CC3C6C"/>
<path d="M97.6362 91.9181C98.0793 91.9181 98.382 92.2639 98.314 92.6875C98.2459 93.1139 97.8334 93.4598 97.3904 93.4598H80.7015C80.2584 93.4598 79.9557 93.1139 80.0237 92.6875C80.0918 92.2625 80.5043 91.9181 80.9473 91.9181H97.6362Z" fill="#CC3C6C"/>
<path d="M97.3905 93.7792H80.7016C80.3933 93.7792 80.1099 93.6542 79.9238 93.4347C79.7391 93.2181 79.6627 92.9347 79.7099 92.6375C79.803 92.0556 80.346 91.5986 80.9474 91.5986H97.6363C97.9446 91.5986 98.228 91.7236 98.4155 91.9431C98.6002 92.1597 98.6766 92.4417 98.6294 92.7375C98.5363 93.3222 97.9919 93.7792 97.3905 93.7792ZM80.9488 92.2375C80.6627 92.2375 80.3835 92.4667 80.3405 92.7389C80.3224 92.85 80.3474 92.9472 80.4099 93.0209C80.4766 93.0986 80.5808 93.1417 80.703 93.1417H97.3919C97.678 93.1417 97.9571 92.9111 98.0002 92.6389C98.0183 92.5292 97.9933 92.432 97.9308 92.3584C97.8641 92.2806 97.7599 92.2375 97.6377 92.2375H80.9488Z" fill="#CC3C6C"/>
<path d="M88.0877 99.2444L91.3835 103.737H61.3613L58.0654 99.2444H88.0877Z" fill="#E28FAA"/>
<path d="M91.3835 104.05H61.3612C61.2612 104.05 61.1682 104.003 61.1099 103.922L57.814 99.4292C57.7446 99.3347 57.7335 99.2083 57.7876 99.1028C57.8404 98.9972 57.9487 98.9319 58.0668 98.9319H88.089C88.189 98.9319 88.2821 98.9792 88.3404 99.0597L91.6363 103.553C91.7057 103.647 91.7168 103.774 91.6626 103.879C91.6099 103.985 91.5015 104.05 91.3835 104.05ZM61.5196 103.425H90.7668L87.9293 99.5569H58.6835L61.5196 103.425Z" fill="#EBB3C6"/>
<path d="M95.9457 108.203L89.1263 100.428L88.0874 99.2444L91.3832 103.737L92.4207 104.921L99.2416 112.697L95.9457 108.203Z" fill="#E28FAA"/>
<path d="M99.2416 113.01C99.1541 113.01 99.068 112.974 99.0069 112.903L91.1486 103.944C91.143 103.937 91.1375 103.931 91.1319 103.924L87.8361 99.4305C87.7375 99.2958 87.7625 99.1069 87.893 99.0014C88.0236 98.8972 88.2139 98.9139 88.3236 99.0389L96.1819 107.997C96.1875 108.004 96.193 108.011 96.1986 108.018L99.4944 112.511C99.593 112.646 99.568 112.835 99.4375 112.94C99.3791 112.986 99.3111 113.01 99.2416 113.01Z" fill="#EBB3C6"/>
<path d="M106.551 99.2444L109.847 103.737H100.671L97.375 99.2444H106.551Z" fill="#E28FAA"/>
<path d="M109.847 104.05H100.671C100.571 104.05 100.478 104.003 100.419 103.922L97.1236 99.4292C97.0542 99.3347 97.043 99.2083 97.0972 99.1028C97.15 98.9972 97.2583 98.9319 97.3764 98.9319H106.553C106.653 98.9319 106.746 98.9792 106.804 99.0597L110.1 103.553C110.169 103.647 110.181 103.774 110.126 103.879C110.074 103.985 109.965 104.05 109.847 104.05ZM100.829 103.425H109.231L106.393 99.5569H97.9917L100.829 103.425Z" fill="#EBB3C6"/>
<path d="M62.7015 70.4903C62.6376 70.4903 62.5738 70.4708 62.5196 70.432L43.3113 56.632C43.2154 56.5625 43.1668 56.4458 43.1849 56.3292L45.2515 43.3681C45.264 43.2931 45.3015 43.2264 45.3599 43.1778L60.3918 30.6097L60.6543 30.3917C60.7099 30.3445 60.7807 30.3195 60.8543 30.3195H97.2196C97.3113 30.3195 97.3974 30.3597 97.4571 30.4292C97.5168 30.4986 97.5418 30.5903 97.5279 30.6806L93.4224 56.4236C93.4071 56.5167 93.3529 56.5972 93.271 56.6445L71.8876 69.1431C71.8404 69.1708 71.7849 69.1861 71.7293 69.1861H63.1765L63.0099 70.2278C62.9932 70.3347 62.921 70.425 62.821 70.4667C62.7835 70.482 62.7432 70.4903 62.7015 70.4903ZM43.8321 56.2361L62.4724 69.6292L62.6001 68.8236C62.6238 68.6722 62.7557 68.5597 62.9085 68.5597H71.6432L92.8265 56.1778L96.8515 30.9417H60.9668L60.7918 31.0861L45.8501 43.5778L43.8321 56.2361Z" fill="#EBB3C6"/>
<path d="M60.5915 30.8472L58.5873 43.4153H45.5596L60.5915 30.8472Z" fill="#E28FAA"/>
<path d="M58.5874 43.7278H45.5596C45.4276 43.7278 45.311 43.6458 45.2665 43.5222C45.2221 43.3986 45.2596 43.2597 45.3596 43.1764L60.3915 30.6083C60.4915 30.525 60.6332 30.5125 60.7457 30.5764C60.8596 30.6403 60.9207 30.768 60.8999 30.8972L58.8957 43.4653C58.8721 43.6167 58.7415 43.7278 58.5874 43.7278ZM46.4207 43.1028H58.3207L60.1513 31.6222L46.4207 43.1028Z" fill="#EBB3C6"/>
<path d="M97.4138 25.1778C102.686 25.1778 106.301 29.2986 105.49 34.3834C104.679 39.4681 99.7485 43.5889 94.4777 43.5889C89.2055 43.5889 85.5902 39.4681 86.4013 34.3834C87.2124 29.2986 92.1416 25.1778 97.4138 25.1778ZM97.9249 28.8653C98.0707 28.2556 97.6374 27.7278 97.0138 27.7278C96.986 27.7278 96.9596 27.7292 96.9318 27.7306C96.318 27.7709 95.7791 28.2792 95.7263 28.8653L94.9166 38.082C94.8971 38.2903 95.043 38.4611 95.2624 38.4764C95.2721 38.4764 95.2818 38.4778 95.293 38.4778C95.5235 38.4778 95.7443 38.3056 95.7971 38.082L97.9249 28.8653ZM94.8846 41.0389C95.4471 41.0389 95.9735 40.6 96.0596 40.057C96.1457 39.5139 95.761 39.075 95.1985 39.075C94.636 39.075 94.1096 39.5139 94.0235 40.057C93.936 40.5986 94.3221 41.0389 94.8846 41.0389Z" fill="#CC3C6C"/>
<path d="M94.4777 43.9014C91.793 43.9014 89.4402 42.8778 87.8527 41.0181C86.3166 39.2181 85.6916 36.8445 86.0916 34.3347C86.9249 29.1139 92.0027 24.8653 97.4138 24.8653C100.099 24.8653 102.451 25.8889 104.039 27.7486C105.575 29.5486 106.2 31.9222 105.8 34.432C104.967 39.6542 99.8874 43.9014 94.4777 43.9014ZM97.4138 25.4903C92.2971 25.4903 87.4957 29.5014 86.7096 34.4334C86.3388 36.7597 86.9138 38.9542 88.3291 40.6125C89.7943 42.3306 91.9791 43.2764 94.4777 43.2764C99.5943 43.2764 104.396 39.2653 105.182 34.3334C105.553 32.007 104.978 29.8125 103.562 28.1542C102.097 26.4361 99.9124 25.4903 97.4138 25.4903ZM94.8846 41.3514C94.5207 41.3514 94.1846 41.2042 93.9652 40.9459C93.7471 40.6903 93.6582 40.357 93.7138 40.007C93.8207 39.3403 94.418 38.8125 95.0985 38.7653C94.9652 38.7292 94.8485 38.657 94.7596 38.5528C94.643 38.4153 94.5874 38.2389 94.6055 38.0542L95.4152 28.8389C95.4818 28.0945 96.1388 27.4722 96.911 27.4209C96.9443 27.4181 96.9791 27.4167 97.0138 27.4167C97.4124 27.4167 97.7763 27.5861 98.0096 27.8834C98.2388 28.175 98.3193 28.5584 98.2291 28.9375L96.0999 38.1542C96.0235 38.4764 95.743 38.7278 95.418 38.782C95.6943 38.8292 95.9416 38.9639 96.1152 39.1695C96.3332 39.425 96.4221 39.7584 96.3666 40.1083C96.2569 40.8042 95.6041 41.3514 94.8846 41.3514ZM95.1971 39.3861C94.7902 39.3861 94.393 39.7153 94.3305 40.1056C94.3041 40.2722 94.343 40.4264 94.4402 40.5403C94.543 40.6597 94.6999 40.7264 94.8846 40.7264C95.2916 40.7264 95.6888 40.3972 95.7513 40.007C95.7777 39.8403 95.7388 39.6861 95.6416 39.5722C95.5388 39.4528 95.3805 39.3861 95.1971 39.3861ZM97.0138 28.0403C96.9943 28.0403 96.9749 28.0417 96.9541 28.0431C96.4943 28.0736 96.0763 28.4625 96.0374 28.8931L95.2277 38.1097C95.2263 38.1264 95.2291 38.1389 95.236 38.1472C95.2443 38.157 95.2624 38.1639 95.2832 38.1653C95.3777 38.1653 95.4721 38.0917 95.4916 38.0111L97.6207 28.7959C97.6207 28.7945 97.6207 28.7945 97.6207 28.7931C97.668 28.5986 97.6305 28.4125 97.5193 28.2695C97.4041 28.1236 97.2207 28.0403 97.0138 28.0403Z" fill="#EBB3C6"/>
<path d="M95.1971 39.0736C95.7596 39.0736 96.1457 39.5125 96.0582 40.0556C95.9707 40.5986 95.4457 41.0375 94.8832 41.0375C94.3207 41.0375 93.9346 40.5986 94.0221 40.0556C94.1096 39.5125 94.6346 39.0736 95.1971 39.0736Z" fill="#EBB3C6"/>
<path d="M94.8846 41.1083C94.5874 41.1083 94.3262 40.9944 94.1499 40.7875C93.979 40.5875 93.9096 40.3236 93.954 40.0458C94.0457 39.4722 94.604 39.0056 95.1971 39.0056C95.4943 39.0056 95.7554 39.1194 95.9318 39.3264C96.1026 39.5264 96.1721 39.7903 96.1276 40.0694C96.036 40.6403 95.4776 41.1083 94.8846 41.1083ZM95.1971 39.1431C94.6679 39.1431 94.1721 39.5569 94.0901 40.0667C94.0526 40.3042 94.111 40.5278 94.254 40.6972C94.404 40.8722 94.6262 40.9694 94.8832 40.9694C95.4124 40.9694 95.9082 40.5556 95.9901 40.0458C96.0276 39.8083 95.9693 39.5847 95.8262 39.4153C95.6762 39.2403 95.454 39.1431 95.1971 39.1431Z" fill="#EBB3C6"/>
<path d="M97.0139 27.7278C97.6375 27.7278 98.0709 28.2542 97.925 28.8653L95.7959 38.0819C95.7431 38.3056 95.5222 38.4778 95.2917 38.4778C95.282 38.4778 95.2723 38.4778 95.2611 38.4764C95.0417 38.4611 94.8959 38.2903 94.9153 38.0819L95.725 28.8653C95.7778 28.2792 96.3167 27.7722 96.9306 27.7306C96.9598 27.7292 96.9861 27.7278 97.0139 27.7278Z" fill="#EBB3C6"/>
<path d="M95.2917 38.5473C95.2806 38.5473 95.2681 38.5473 95.257 38.5459C95.1306 38.5375 95.0195 38.4834 94.9445 38.3945C94.8709 38.3084 94.8361 38.1945 94.8472 38.075L95.657 28.8584C95.7125 28.2417 96.282 27.7042 96.9264 27.6611C97.2834 27.6348 97.6139 27.7736 97.8181 28.032C98.0014 28.2653 98.0653 28.5736 97.9917 28.8806L95.8625 38.0973C95.8042 38.3542 95.5584 38.5473 95.2917 38.5473ZM97.0139 27.7973C96.9889 27.7973 96.9625 27.7986 96.9361 27.8C96.3556 27.8389 95.8445 28.3195 95.7959 28.8709L94.9861 38.0875C94.9792 38.1695 95.0014 38.2459 95.0514 38.3042C95.1028 38.3639 95.1792 38.4014 95.2681 38.407C95.4695 38.4195 95.6834 38.2653 95.7292 38.0667L97.8584 28.85C97.9222 28.5806 97.8709 28.3209 97.7111 28.1195C97.5486 27.9153 97.2945 27.7973 97.0139 27.7973Z" fill="#EBB3C6"/>
</svg>
