<svg width="150" height="150" viewBox="0 0 150 150" fill="none" xmlns="http://www.w3.org/2000/svg">
<g opacity="0.6">
<path d="M74.999 128.201C103.318 128.201 126.275 119.195 126.275 108.086C126.275 96.9766 103.318 87.9707 74.999 87.9707C46.6799 87.9707 23.7227 96.9766 23.7227 108.086C23.7227 119.195 46.6799 128.201 74.999 128.201Z" fill="#EBB3C6"/>
<path d="M79.1374 45.793L77.4152 56.5902H66.2207L79.0721 45.793H79.1374Z" fill="#E28FAA"/>
<path d="M77.4144 56.9027H66.22C66.088 56.9027 65.9714 56.8207 65.9269 56.6971C65.8825 56.5735 65.9186 56.436 66.02 56.3513L78.8714 45.5541C78.9283 45.5069 78.9992 45.4805 79.0728 45.4805H79.138C79.2297 45.4805 79.3158 45.5207 79.3755 45.5902C79.4353 45.6596 79.4603 45.7513 79.4464 45.8416L77.7242 56.6388C77.6992 56.7916 77.5686 56.9027 77.4144 56.9027ZM67.0783 56.2777H77.1478L78.7061 46.5082L67.0783 56.2777Z" fill="#E28FAA"/>
<path d="M113.973 49.4805L113.27 53.8832L105.6 101.979L108.972 102.642L116.127 57.7791L116.83 53.3749L113.973 49.4805Z" fill="#EBB3C6"/>
<path d="M108.972 102.954C108.952 102.954 108.931 102.953 108.912 102.949L105.54 102.286C105.374 102.254 105.265 102.096 105.291 101.931L113.665 49.4308C113.684 49.3058 113.777 49.2058 113.899 49.1766C114.022 49.1474 114.151 49.1933 114.224 49.2961L117.081 53.1905C117.131 53.2572 117.151 53.3419 117.138 53.4238L109.281 102.691C109.267 102.774 109.222 102.849 109.152 102.897C109.098 102.935 109.035 102.954 108.972 102.954ZM105.956 101.731L108.715 102.272L116.501 53.4544L114.163 50.2683L105.956 101.731Z" fill="#E28FAA"/>
<path d="M113.973 49.4805L113.27 53.8846L104.304 110.108L92.1133 108.96L56.4355 106.521C56.4355 106.521 64.3647 65.1957 64.4286 64.5916L65.1161 60.2777H76.3105L78.0328 49.4805H113.973Z" fill="#E28FAA"/>
<path d="M104.303 110.42C104.294 110.42 104.284 110.42 104.274 110.419L92.084 109.27L56.4146 106.831C56.3257 106.826 56.2424 106.781 56.1882 106.71C56.134 106.64 56.1118 106.549 56.1285 106.46C58.8604 92.2257 64.0438 65.1493 64.1174 64.5563C64.1174 64.5521 64.1188 64.5452 64.1188 64.541L64.8062 60.2271C64.8299 60.0757 64.9618 59.9632 65.1146 59.9632H76.0424L77.7215 49.4299C77.7451 49.2785 77.8771 49.166 78.0299 49.166H113.97C114.062 49.166 114.148 49.2063 114.208 49.2757C114.267 49.3452 114.292 49.4368 114.278 49.5271L104.609 110.154C104.588 110.31 104.456 110.42 104.303 110.42ZM56.809 106.233L92.1354 108.648L104.041 109.77L113.606 49.7938H78.2993L76.6201 60.3271C76.5965 60.4785 76.4646 60.591 76.3118 60.591H65.384L64.7382 64.6396C64.591 65.6618 57.6215 101.995 56.809 106.233Z" fill="#E28FAA"/>
<path d="M74.3659 42.3457L72.6437 53.1415H61.4492L74.3006 42.3457H74.3659Z" fill="#E28FAA"/>
<path d="M72.6429 53.4535H61.4485C61.3166 53.4535 61.1999 53.3715 61.1554 53.2479C61.111 53.1243 61.1471 52.9868 61.2485 52.9021L74.0999 42.1049C74.1568 42.0576 74.2277 42.0312 74.3013 42.0312H74.3666C74.4582 42.0312 74.5443 42.0715 74.6041 42.141C74.6638 42.2104 74.6888 42.3021 74.6749 42.3924L72.9527 53.1896C72.9277 53.3424 72.7971 53.4535 72.6429 53.4535ZM62.3068 52.8285H72.3763L73.9346 43.059L62.3068 52.8285Z" fill="#E28FAA"/>
<path d="M109.753 44.1895L109.05 48.5922L101.379 96.6881L104.751 97.3506L111.907 52.4881L112.609 48.0839L109.753 44.1895Z" fill="#EBB3C6"/>
<path d="M104.751 97.6634C104.731 97.6634 104.711 97.662 104.691 97.6578L101.319 96.9953C101.154 96.9634 101.044 96.805 101.07 96.6398L109.444 44.1398C109.463 44.0148 109.556 43.9148 109.679 43.8856C109.801 43.8564 109.93 43.9023 110.004 44.005L112.861 47.8995C112.911 47.9662 112.93 48.0509 112.918 48.1342L105.061 97.4009C105.047 97.4842 105.001 97.5592 104.931 97.6078C104.877 97.6439 104.815 97.6634 104.751 97.6634ZM101.736 96.4398L104.494 96.9814L112.28 48.1634L109.943 44.9773L101.736 96.4398Z" fill="#E28FAA"/>
<path d="M109.752 44.1875L109.05 48.5917L100.083 104.815L87.8926 103.667L52.2148 101.228C52.2148 101.228 60.144 59.9028 60.2079 59.2986L60.8954 54.9847H72.0898L73.8121 44.1875H109.752Z" fill="#E28FAA"/>
<path d="M100.083 105.127C100.073 105.127 100.063 105.127 100.054 105.126L87.8633 103.977L52.1939 101.538C52.105 101.533 52.0217 101.488 51.9675 101.417C51.9133 101.347 51.8911 101.256 51.9078 101.167C54.6397 86.9328 59.823 59.8564 59.8967 59.2633C59.8967 59.2592 59.898 59.2522 59.898 59.248L60.5856 54.9342C60.6092 54.7828 60.7411 54.6703 60.8939 54.6703H71.8217L73.5022 44.1369C73.5258 43.9855 73.6578 43.873 73.8106 43.873H109.751C109.842 43.873 109.929 43.9133 109.988 43.9828C110.048 44.0522 110.073 44.1439 110.059 44.2342L100.39 104.861C100.368 105.017 100.236 105.127 100.083 105.127ZM52.5883 100.94L87.9147 103.355L99.8203 104.477L109.386 44.5008H74.0786L72.3981 55.0342C72.3744 55.1855 72.2425 55.298 72.0897 55.298H61.1619L60.5161 59.3467C60.3703 60.3689 53.4008 96.7022 52.5883 100.94Z" fill="#E28FAA"/>
<path d="M69.5944 38.8984L67.8722 49.6943H56.6777L69.5291 38.8984H69.5944Z" fill="#E28FAA"/>
<path d="M67.8715 50.0062H56.677C56.5451 50.0062 56.4284 49.9243 56.384 49.8007C56.3395 49.677 56.3756 49.5395 56.477 49.4548L69.3284 38.6576C69.3853 38.6104 69.4562 38.584 69.5298 38.584H69.5951C69.6867 38.584 69.7728 38.6243 69.8326 38.6937C69.8923 38.7632 69.9173 38.8548 69.9034 38.9451L68.1812 49.7423C68.1562 49.8951 68.0256 50.0062 67.8715 50.0062ZM57.5353 49.3812H67.6048L69.1631 39.6118L57.5353 49.3812Z" fill="#E28FAA"/>
<path d="M105.534 38.8965L104.831 43.2993L97.1602 91.3951L100.534 92.0576L107.688 47.1951L108.391 42.7909L105.534 38.8965Z" fill="#EBB3C6"/>
<path d="M100.534 92.3704C100.515 92.3704 100.494 92.369 100.474 92.3649L97.1021 91.7024C96.9369 91.6704 96.8271 91.5121 96.8535 91.3468L105.227 38.8468C105.247 38.7218 105.34 38.6218 105.462 38.5926C105.584 38.5635 105.713 38.6093 105.787 38.7121L108.644 42.6065C108.694 42.6732 108.713 42.7579 108.701 42.8412L100.844 92.1079C100.83 92.1912 100.784 92.2662 100.715 92.3148C100.659 92.351 100.597 92.3704 100.534 92.3704ZM97.5174 91.1468L100.276 91.6885L108.062 42.8704L105.724 39.6843L97.5174 91.1468Z" fill="#E28FAA"/>
<path d="M105.534 38.8965L104.831 43.3007L95.8642 99.5243L83.6739 98.3757L47.9961 95.9368C47.9961 95.9368 55.9253 54.6118 55.9892 54.0076L56.6767 49.6937H67.8711L69.5933 38.8965H105.534Z" fill="#EBB3C6"/>
<path d="M95.864 99.8362C95.8543 99.8362 95.8446 99.8362 95.8349 99.8348L83.6446 98.6862L47.9751 96.2473C47.8862 96.2417 47.8029 96.1973 47.7487 96.1265C47.6946 96.0556 47.6724 95.9654 47.689 95.8765C50.4196 81.6418 55.6043 54.5654 55.6779 53.9723C55.6779 53.9681 55.6793 53.9612 55.6793 53.957L56.3668 49.6431C56.3904 49.4918 56.5224 49.3793 56.6751 49.3793H67.6029L69.2835 38.8459C69.3071 38.6945 69.439 38.582 69.5918 38.582H105.532C105.624 38.582 105.71 38.6223 105.77 38.6918C105.829 38.7612 105.854 38.8529 105.84 38.9431L96.171 99.5695C96.1488 99.7265 96.0168 99.8362 95.864 99.8362ZM48.3696 95.6487L83.696 98.064L95.6015 99.1862L105.167 39.2098H69.8599L68.1793 49.7431C68.1557 49.8945 68.0237 50.007 67.871 50.007H56.9432L56.2974 54.0556C56.1515 55.082 49.1835 91.4112 48.3696 95.6487Z" fill="#EBB3C6"/>
<path d="M60.1582 54.1738L63.0151 58.0683C63.436 58.6419 63.6263 59.3877 63.4957 60.2044C63.3651 61.0211 63.5554 61.7683 63.9763 62.3419L61.1193 58.4474C60.6985 57.8738 60.5082 57.1266 60.6388 56.3099C60.7693 55.4933 60.579 54.7474 60.1582 54.1738Z" fill="#E28FAA"/>
<path d="M63.9783 62.655C63.8824 62.655 63.7866 62.6106 63.7255 62.5272L60.8685 58.6328C60.3838 57.9717 60.1921 57.1286 60.331 56.2605C60.4421 55.5605 60.2921 54.8856 59.9074 54.3606L59.906 54.3592C59.8046 54.2203 59.8338 54.0244 59.9727 53.9217C60.1116 53.8203 60.3074 53.8494 60.4102 53.9883C60.4102 53.9897 60.4116 53.9897 60.4116 53.9897L63.2671 57.8828C63.7519 58.5439 63.9421 59.3856 63.8046 60.2522C63.6935 60.9536 63.8435 61.6286 64.2269 62.1536L64.2283 62.1564C64.3296 62.2953 64.3005 62.4911 64.1616 62.5939C64.1074 62.6356 64.0421 62.655 63.9783 62.655ZM60.9921 55.8383C60.9908 56.0106 60.9769 56.1842 60.9491 56.3592C60.8366 57.0606 60.988 57.7369 61.3741 58.2633L63.1449 60.6786C63.1463 60.5064 63.1602 60.3314 63.1894 60.1564C63.3019 59.455 63.1505 58.78 62.7658 58.255L60.9921 55.8383Z" fill="#E28FAA"/>
<mask id="mask0_2188_94736" style="mask-type:luminance" maskUnits="userSpaceOnUse" x="60" y="54" width="4" height="9">
<mask id="mask1_2188_94736" style="mask-type:luminance" maskUnits="userSpaceOnUse" x="60" y="54" width="4" height="9">
<path d="M60.1582 54.1738L63.0151 58.0683C63.436 58.6419 63.6263 59.3877 63.4957 60.2044C63.3651 61.0211 63.5554 61.7683 63.9763 62.3419L61.1193 58.4474C60.6985 57.8738 60.5082 57.1266 60.6388 56.3099C60.7693 55.4933 60.579 54.7474 60.1582 54.1738Z" fill="white"/>
</mask>
<g mask="url(#mask1_2188_94736)">
<path d="M63.9783 62.655C63.8824 62.655 63.7866 62.6106 63.7255 62.5272L60.8685 58.6328C60.3838 57.9717 60.1921 57.1286 60.331 56.2605C60.4421 55.5605 60.2921 54.8856 59.9074 54.3606L59.906 54.3592C59.8046 54.2203 59.8338 54.0244 59.9727 53.9217C60.1116 53.8203 60.3074 53.8494 60.4102 53.9883C60.4102 53.9897 60.4116 53.9897 60.4116 53.9897L63.2671 57.8828C63.7519 58.5439 63.9421 59.3856 63.8046 60.2522C63.6935 60.9536 63.8435 61.6286 64.2269 62.1536L64.2283 62.1564C64.3296 62.2953 64.3005 62.4911 64.1616 62.5939C64.1074 62.6356 64.0421 62.655 63.9783 62.655ZM60.9921 55.8383C60.9908 56.0106 60.9769 56.1842 60.9491 56.3592C60.8366 57.0606 60.988 57.7369 61.3741 58.2633L63.1449 60.6786C63.1463 60.5064 63.1602 60.3314 63.1894 60.1564C63.3019 59.455 63.1505 58.78 62.7658 58.255L60.9921 55.8383Z" fill="white"/>
</g>
</mask>
<g mask="url(#mask0_2188_94736)">
<path d="M60.1582 54.1738L63.0151 58.0683C63.0374 58.0988 63.0596 58.1308 63.0818 58.1627L60.2249 54.2683C60.204 54.2363 60.1818 54.2044 60.1582 54.1738Z" fill="#E28FAA"/>
<path d="M63.0824 58.475C62.9866 58.475 62.8908 58.4306 62.8297 58.3473L59.9727 54.4528C59.9463 54.4139 59.9269 54.3862 59.906 54.3584C59.8046 54.2195 59.8338 54.0236 59.9727 53.9223C60.1116 53.8195 60.3074 53.85 60.4102 53.9889L63.2671 57.8834C63.2921 57.9181 63.3171 57.9528 63.3408 57.9889C63.4352 58.1306 63.3991 58.3209 63.2602 58.4181C63.2074 58.457 63.1449 58.475 63.0824 58.475Z" fill="#E28FAA"/>
<path d="M60.2266 54.2695L63.0835 58.164C63.1391 58.2473 63.1905 58.3348 63.2377 58.4251L60.3807 54.5306C60.3335 54.4404 60.2821 54.3529 60.2266 54.2695Z" fill="#E28FAA"/>
<path d="M63.237 58.7369C63.1411 58.7369 63.0453 58.6925 62.9842 58.6092L60.1272 54.7147C60.1175 54.7008 60.1092 54.6869 60.1009 54.673C60.0606 54.5939 60.0147 54.5161 59.9647 54.4425C59.8703 54.3008 59.9064 54.1105 60.0453 54.0133C60.1842 53.9161 60.3759 53.948 60.4759 54.0842L63.3328 57.9786C63.4036 58.0828 63.4606 58.1814 63.512 58.2814C63.587 58.4258 63.537 58.6036 63.3981 58.6897C63.3495 58.7217 63.2925 58.7369 63.237 58.7369Z" fill="#E28FAA"/>
<path d="M60.3809 54.5293L63.2378 58.4237C63.2892 58.5237 63.3336 58.6265 63.3725 58.7335L60.5156 54.839C60.4767 54.7321 60.4309 54.6293 60.3809 54.5293Z" fill="#E28FAA"/>
<path d="M63.372 59.0455C63.2748 59.0455 63.1804 59.0011 63.1193 58.9178L60.2623 55.0233C60.2443 54.9997 60.2304 54.9733 60.2206 54.9455C60.1873 54.8525 60.147 54.7608 60.1012 54.6719C60.0262 54.5275 60.0762 54.3497 60.2151 54.2636C60.354 54.1775 60.5345 54.2136 60.6318 54.3441L63.4887 58.2386C63.4984 58.2525 63.5068 58.2664 63.5151 58.2803C63.572 58.3914 63.6234 58.508 63.6651 58.6261C63.7179 58.7719 63.6554 58.9344 63.5179 59.008C63.472 59.0344 63.422 59.0455 63.372 59.0455Z" fill="#E28FAA"/>
<path d="M60.5137 54.8398L63.3706 58.7343C63.4178 58.8648 63.4553 58.9996 63.4831 59.1385L60.6262 55.244C60.5984 55.1051 60.5609 54.9704 60.5137 54.8398Z" fill="#E28FAA"/>
<path d="M63.4837 59.452C63.3865 59.452 63.292 59.4061 63.2309 59.3242L60.374 55.4297C60.3476 55.3922 60.3281 55.3506 60.3198 55.3047C60.2962 55.1825 60.2629 55.0617 60.2198 54.9464C60.167 54.8006 60.2295 54.6381 60.367 54.5644C60.5045 54.4908 60.674 54.5297 60.7656 54.6547L63.6226 58.5492C63.6406 58.5728 63.6545 58.5992 63.6643 58.6269C63.717 58.7728 63.7587 58.9242 63.7893 59.0783C63.817 59.2214 63.742 59.3658 63.6087 59.4242C63.5684 59.4436 63.5254 59.452 63.4837 59.452Z" fill="#E28FAA"/>
<path d="M60.628 55.2422L63.4849 59.1366C63.5502 59.47 63.5585 59.8297 63.4988 60.2019C63.4391 60.5755 63.446 60.9339 63.5127 61.2672L60.6558 57.3727C60.5905 57.0394 60.5821 56.6811 60.6419 56.3075C60.7002 55.9352 60.6933 55.5769 60.628 55.2422Z" fill="#E28FAA"/>
<path d="M63.5105 61.5814C63.4133 61.5814 63.3188 61.5356 63.2577 61.4536L60.4008 57.5592C60.373 57.5217 60.3549 57.48 60.3466 57.4342C60.273 57.0564 60.2674 56.6606 60.3313 56.2592C60.3841 55.93 60.3799 55.6092 60.3202 55.3036C60.2924 55.1606 60.3674 55.0161 60.5008 54.9578C60.6341 54.8994 60.7911 54.9411 60.8786 55.0592L63.7355 58.9536C63.7619 58.9911 63.7813 59.0328 63.7897 59.0786C63.8647 59.4564 63.8702 59.8522 63.8049 60.2536C63.7522 60.5828 63.7563 60.9036 63.816 61.2092C63.8438 61.3522 63.7688 61.4967 63.6355 61.555C63.5952 61.5731 63.5536 61.5814 63.5105 61.5814ZM60.948 57.2467L63.1702 60.2772C63.1758 60.2369 63.1813 60.1953 63.1883 60.1536C63.2369 59.8494 63.2369 59.5494 63.1883 59.2647L60.9661 56.2342C60.9605 56.2744 60.9549 56.3161 60.948 56.3564C60.9008 56.6619 60.9008 56.9606 60.948 57.2467Z" fill="#E28FAA"/>
<path d="M60.6523 57.373L63.5093 61.2675C63.5371 61.4064 63.5746 61.5425 63.6218 61.673L60.7648 57.7786C60.7176 57.648 60.6801 57.5133 60.6523 57.373Z" fill="#E28FAA"/>
<path d="M63.622 61.9873C63.5248 61.9873 63.4303 61.9428 63.3692 61.8595L60.5123 57.965C60.4942 57.9414 60.4803 57.915 60.4706 57.8859C60.4178 57.74 60.3761 57.5886 60.3456 57.4345C60.3178 57.2914 60.3928 57.147 60.5261 57.0886C60.6609 57.0303 60.8164 57.072 60.9039 57.19L63.7609 61.0845C63.7886 61.122 63.8067 61.1636 63.815 61.2095C63.8386 61.3317 63.872 61.4525 63.915 61.5692C63.9678 61.715 63.9053 61.8775 63.7678 61.9511C63.722 61.9748 63.672 61.9873 63.622 61.9873Z" fill="#E28FAA"/>
<path d="M60.7656 57.7793L63.6226 61.6737C63.6615 61.7807 63.7059 61.8849 63.7573 61.9835L60.9003 58.089C60.849 57.9904 60.8045 57.8862 60.7656 57.7793Z" fill="#E28FAA"/>
<path d="M63.7579 62.2975C63.662 62.2975 63.5662 62.2531 63.5051 62.1697L60.6481 58.2753C60.6384 58.2614 60.6301 58.2475 60.6218 58.2336C60.5648 58.1225 60.5134 58.0059 60.4718 57.8878C60.419 57.742 60.4815 57.5795 60.619 57.5059C60.7565 57.4322 60.9259 57.4711 61.0176 57.5961L63.8745 61.4906C63.8926 61.5142 63.9065 61.5406 63.9162 61.5697C63.9495 61.6628 63.9898 61.7559 64.0357 61.8434C64.1107 61.9878 64.0607 62.1656 63.9218 62.2517C63.8718 62.2822 63.8148 62.2975 63.7579 62.2975Z" fill="#E28FAA"/>
<path d="M60.9004 58.0898L63.7573 61.9843C63.8032 62.0746 63.8546 62.1621 63.9115 62.2454L61.0546 58.351C60.9976 58.2662 60.9476 58.1801 60.9004 58.0898Z" fill="#E28FAA"/>
<path d="M63.9116 62.5589C63.8157 62.5589 63.7199 62.5144 63.6588 62.4311L60.8019 58.5366C60.731 58.4325 60.6741 58.3339 60.6227 58.2325C60.5477 58.088 60.5977 57.9102 60.7366 57.8241C60.8755 57.738 61.056 57.7741 61.1532 57.9047L64.0102 61.7991C64.0199 61.813 64.0282 61.8269 64.0366 61.8408C64.0768 61.92 64.1227 61.9978 64.1727 62.0714C64.2671 62.213 64.231 62.4033 64.0921 62.5005C64.0352 62.5408 63.9727 62.5589 63.9116 62.5589Z" fill="#E28FAA"/>
<path d="M61.0547 58.3516L63.9116 62.246C63.9339 62.2779 63.9561 62.3099 63.9783 62.3418L61.1214 58.4474C61.0977 58.4154 61.0755 58.3835 61.0547 58.3516Z" fill="#E28FAA"/>
<path d="M63.9787 62.6551C63.8829 62.6551 63.7884 62.6106 63.7273 62.5273V62.5259C63.7273 62.5245 63.7259 62.5245 63.7259 62.5231L60.8718 58.6315C60.8468 58.5967 60.8218 58.5606 60.7968 58.5245C60.7023 58.3829 60.7384 58.1926 60.8773 58.0954C61.0162 57.9981 61.2079 58.0301 61.3079 58.1662L64.1648 62.0606C64.1912 62.0995 64.2093 62.1259 64.2287 62.1523L64.2301 62.1551C64.3315 62.294 64.3023 62.4898 64.1634 62.5912C64.1079 62.6356 64.0426 62.6551 63.9787 62.6551Z" fill="#E28FAA"/>
</g>
<path d="M66.3703 63.7943C65.28 63.7943 64.3162 63.3332 63.7259 62.5276L60.8689 58.6332C60.7675 58.4943 60.7967 58.2985 60.9356 58.1957C61.0745 58.0929 61.2703 58.1235 61.3731 58.2624L61.3745 58.2638C61.8453 58.9054 62.6245 59.2735 63.5134 59.2735C63.6134 59.2735 63.7064 59.3207 63.7648 59.4013L66.6217 63.2957C66.6912 63.3901 66.7023 63.5165 66.6481 63.6221C66.5953 63.7276 66.4884 63.7943 66.3703 63.7943ZM62.4606 59.7457L64.23 62.1582C64.5787 62.6332 65.0939 62.9582 65.6995 63.0957L63.3523 59.8957C63.0411 59.8818 62.7425 59.8318 62.4606 59.7457Z" fill="#E28FAA"/>
<mask id="mask2_2188_94736" style="mask-type:luminance" maskUnits="userSpaceOnUse" x="60" y="58" width="7" height="6">
<path d="M66.3703 63.7943C65.28 63.7943 64.3162 63.3332 63.7259 62.5276L60.8689 58.6332C60.7675 58.4943 60.7967 58.2985 60.9356 58.1957C61.0745 58.0929 61.2703 58.1235 61.3731 58.2624L61.3745 58.2638C61.8453 58.9054 62.6245 59.2735 63.5134 59.2735C63.6134 59.2735 63.7064 59.3207 63.7648 59.4013L66.6217 63.2957C66.6912 63.3901 66.7023 63.5165 66.6481 63.6221C66.5953 63.7276 66.4884 63.7943 66.3703 63.7943ZM62.4606 59.7457L64.23 62.1582C64.5787 62.6332 65.0939 62.9582 65.6995 63.0957L63.3523 59.8957C63.0411 59.8818 62.7425 59.8318 62.4606 59.7457Z" fill="white"/>
</mask>
<g mask="url(#mask2_2188_94736)">
<path d="M63.5128 59.5862L66.3697 63.4806C65.3405 63.4806 64.4892 63.0389 63.978 62.3417L61.1211 58.4473C61.6322 59.1459 62.4836 59.5862 63.5128 59.5862Z" fill="#E6EEFF"/>
<path d="M66.3703 63.7943C65.28 63.7943 64.3162 63.3332 63.7259 62.5276L60.8689 58.6332C60.7675 58.4943 60.7967 58.2985 60.9356 58.1957C61.0745 58.0929 61.2703 58.1235 61.3731 58.2624L61.3745 58.2638C61.8453 58.9054 62.6245 59.2735 63.5134 59.2735C63.6134 59.2735 63.7064 59.3207 63.7648 59.4013L66.6217 63.2957C66.6912 63.3901 66.7023 63.5165 66.6481 63.6221C66.5953 63.7276 66.4884 63.7943 66.3703 63.7943ZM62.4606 59.7457L64.23 62.1582C64.5787 62.6332 65.0939 62.9582 65.6995 63.0957L63.3523 59.8957C63.0411 59.8818 62.7425 59.8318 62.4606 59.7457Z" fill="#E28FAA"/>
</g>
<path d="M90.5026 59.5859L93.3595 63.4818H66.3706L63.5137 59.5859H90.5026Z" fill="#E6EEFF"/>
<path d="M93.359 63.7948H66.3701C66.2701 63.7948 66.1771 63.7476 66.1187 63.6671L63.2618 59.7726C63.1923 59.6782 63.1812 59.5518 63.2354 59.4462C63.2882 59.3407 63.3965 59.2754 63.5146 59.2754H90.5035C90.6035 59.2754 90.6965 59.3226 90.7548 59.4032L93.6118 63.2976C93.6812 63.3921 93.6923 63.5184 93.6382 63.624C93.584 63.7282 93.4771 63.7948 93.359 63.7948ZM66.5284 63.1698H92.7423L90.3437 59.9004H64.1298L66.5284 63.1698Z" fill="#E28FAA"/>
<path d="M95.7534 64.9318C95.6576 64.9318 95.5617 64.8873 95.5006 64.804C95.0298 64.1609 94.2492 63.7929 93.3604 63.7929C93.2604 63.7929 93.1673 63.7457 93.109 63.6651L90.252 59.7707C90.1826 59.6762 90.1715 59.5498 90.2256 59.4443C90.2784 59.3387 90.3867 59.2734 90.5048 59.2734C91.5951 59.2734 92.559 59.7346 93.1492 60.5401L96.0062 64.4345C96.1076 64.5734 96.0784 64.7693 95.9395 64.872C95.8812 64.9123 95.8173 64.9318 95.7534 64.9318ZM93.5215 63.172C93.8326 63.1845 94.1312 63.2359 94.4131 63.3221L92.6437 60.9095C92.2951 60.4345 91.7784 60.1095 91.1742 59.972L93.5215 63.172Z" fill="#E28FAA"/>
<mask id="mask3_2188_94736" style="mask-type:luminance" maskUnits="userSpaceOnUse" x="90" y="59" width="7" height="6">
<path d="M95.7534 64.9318C95.6576 64.9318 95.5617 64.8873 95.5006 64.804C95.0298 64.1609 94.2492 63.7929 93.3604 63.7929C93.2604 63.7929 93.1673 63.7457 93.109 63.6651L90.252 59.7707C90.1826 59.6762 90.1715 59.5498 90.2256 59.4443C90.2784 59.3387 90.3867 59.2734 90.5048 59.2734C91.5951 59.2734 92.559 59.7346 93.1492 60.5401L96.0062 64.4345C96.1076 64.5734 96.0784 64.7693 95.9395 64.872C95.8812 64.9123 95.8173 64.9318 95.7534 64.9318ZM93.5215 63.172C93.8326 63.1845 94.1312 63.2359 94.4131 63.3221L92.6437 60.9095C92.2951 60.4345 91.7784 60.1095 91.1742 59.972L93.5215 63.172Z" fill="white"/>
</mask>
<g mask="url(#mask3_2188_94736)">
<path d="M92.8956 60.7248L95.7525 64.6193C95.2414 63.9221 94.39 63.4804 93.3609 63.4804L90.5039 59.5859C91.5331 59.5859 92.3845 60.0276 92.8956 60.7248Z" fill="#E6EEFF"/>
<path d="M95.7534 64.9318C95.6576 64.9318 95.5617 64.8873 95.5006 64.804C95.0298 64.1609 94.2492 63.7929 93.3604 63.7929C93.2604 63.7929 93.1673 63.7457 93.109 63.6651L90.252 59.7707C90.1826 59.6762 90.1715 59.5498 90.2256 59.4443C90.2784 59.3387 90.3867 59.2734 90.5048 59.2734C91.5951 59.2734 92.559 59.7346 93.1492 60.5401L96.0062 64.4345C96.1076 64.5734 96.0784 64.7693 95.9395 64.872C95.8812 64.9123 95.8173 64.9318 95.7534 64.9318ZM93.5215 63.172C93.8326 63.1845 94.1312 63.2359 94.4131 63.3221L92.6437 60.9095C92.2951 60.4345 91.7784 60.1095 91.1742 59.972L93.5215 63.172Z" fill="#E28FAA"/>
</g>
<path d="M78.192 78.6328L76.6726 88.1648H48.3906L49.9115 78.6328H78.192Z" fill="#E28FAA"/>
<path d="M96.2665 66.371C96.2693 66.3085 96.2707 66.2446 96.2693 66.1821C96.2679 66.1446 96.2651 66.1099 96.2623 66.0724C96.2595 66.0168 96.2554 65.9613 96.2484 65.9071C96.2443 65.8696 96.2373 65.8321 96.2318 65.7946C96.2262 65.7599 96.2234 65.7252 96.2165 65.6918C96.2123 65.6724 96.2068 65.6529 96.2026 65.6335C96.1971 65.6071 96.1901 65.5807 96.1845 65.5557C96.1693 65.496 96.1526 65.4363 96.1346 65.3793C96.1276 65.3571 96.1207 65.3363 96.1137 65.3141C96.1109 65.3057 96.1082 65.296 96.1054 65.2877C96.0984 65.2668 96.0873 65.2488 96.079 65.228C96.0512 65.1571 96.0221 65.0877 95.9887 65.021C95.9818 65.0071 95.9776 64.9918 95.9693 64.9779C95.9596 64.9585 95.9471 64.9404 95.9359 64.921C95.9082 64.871 95.879 64.821 95.8484 64.7724C95.8373 64.7543 95.8276 64.7349 95.8151 64.7168C95.7943 64.6849 95.772 64.6529 95.7484 64.621L92.8915 60.7266C92.9276 60.7752 92.9596 60.8266 92.9915 60.878C93.0221 60.9266 93.0512 60.9752 93.079 61.0266C93.0971 61.0599 93.1151 61.0932 93.1318 61.1266C93.1651 61.1932 93.1943 61.2627 93.222 61.3335C93.2332 61.3627 93.2457 61.3905 93.2568 61.4196C93.2637 61.4405 93.2707 61.4627 93.2776 61.4849C93.2957 61.5432 93.3137 61.6016 93.3276 61.6613C93.3345 61.6877 93.3401 61.7127 93.3457 61.7391C93.3568 61.7918 93.3665 61.846 93.3748 61.9002C93.3804 61.9377 93.3873 61.9752 93.3915 62.0127C93.3984 62.0668 93.4012 62.1224 93.4054 62.1779C93.4082 62.2141 93.4109 62.2502 93.4123 62.2877C93.4137 62.3502 93.4109 62.4127 93.4096 62.4766C93.4082 62.5085 93.4095 62.5391 93.4068 62.571C93.3998 62.6668 93.3901 62.7627 93.3748 62.8613L87.7109 98.3752L90.5679 102.27L96.2318 66.7557C96.2471 66.6585 96.2582 66.5613 96.2637 66.4654C96.2665 66.4335 96.2651 66.4029 96.2665 66.371Z" fill="#E28FAA"/>
<path d="M90.5674 102.584C90.4688 102.584 90.3757 102.538 90.316 102.456L87.4591 98.5613C87.4091 98.4947 87.3896 98.4099 87.4021 98.3266L93.066 62.8127C93.0799 62.728 93.0896 62.6419 93.0952 62.5502C93.0966 62.5363 93.0966 62.5224 93.0966 62.5086L93.098 62.4655C93.1007 62.4086 93.1021 62.3516 93.1007 62.2961C93.1007 62.2752 93.0993 62.2558 93.098 62.2349L93.0952 62.1988C93.0924 62.1488 93.0896 62.0988 93.0841 62.0502C93.0813 62.0252 93.0771 62.0002 93.073 61.9752L93.0688 61.9488C93.0618 61.9016 93.0535 61.853 93.0424 61.8058C93.0368 61.7836 93.0313 61.7599 93.0257 61.7377C93.0118 61.6836 92.9979 61.6322 92.9813 61.5808L92.9632 61.5224C92.9591 61.5113 92.9535 61.4988 92.9493 61.4863L92.9327 61.4461C92.9063 61.3766 92.8799 61.3169 92.8535 61.2627C92.8382 61.2322 92.8229 61.203 92.8077 61.1738C92.7841 61.1294 92.7577 61.0863 92.7313 61.0433L92.716 61.0197C92.6924 60.9822 92.6688 60.9447 92.6438 60.9099C92.5424 60.7711 92.5716 60.5752 92.7105 60.4724C92.8493 60.3711 93.0452 60.4002 93.1479 60.5391L96.0049 64.4336C96.0313 64.4683 96.0549 64.5044 96.0799 64.5405C96.091 64.5572 96.1007 64.5752 96.1105 64.5919C96.1507 64.6558 96.1827 64.7113 96.2132 64.7683C96.2313 64.7974 96.241 64.8141 96.2507 64.8336C96.2577 64.8474 96.2646 64.8641 96.2716 64.8808C96.3049 64.9502 96.3382 65.0266 96.3716 65.1113C96.3841 65.1391 96.3938 65.1586 96.4007 65.178C96.4049 65.1891 96.4077 65.1988 96.4104 65.2086C96.416 65.2266 96.4216 65.2433 96.4271 65.2613L96.4327 65.2808C96.4535 65.3447 96.4729 65.4113 96.4896 65.478C96.4966 65.5072 96.5035 65.5349 96.5105 65.5655L96.5146 65.5822C96.5188 65.5974 96.523 65.6141 96.5257 65.6294C96.5313 65.6572 96.5355 65.6849 96.5382 65.7113L96.5466 65.7669C96.5521 65.8002 96.5577 65.8336 96.5618 65.8683C96.5688 65.9294 96.573 65.9905 96.5771 66.053L96.5799 66.0863C96.5827 66.1155 96.5841 66.1447 96.5841 66.1738C96.5854 66.2433 96.5841 66.3127 96.5813 66.3808V66.4099C96.5813 66.4349 96.5799 66.4599 96.5785 66.4863C96.5716 66.5947 96.5591 66.7016 96.5424 66.803L90.8785 102.317C90.8591 102.442 90.766 102.542 90.6438 102.571C90.6174 102.579 90.5924 102.584 90.5674 102.584ZM88.0396 98.296L90.3771 101.482L95.9229 66.7072C95.9368 66.6238 95.9466 66.5349 95.9521 66.4447C95.9535 66.4294 95.9535 66.4169 95.9535 66.403L95.9549 66.3599C95.9549 66.3599 95.9549 66.3599 95.9549 66.3586C95.9577 66.3016 95.9591 66.2447 95.9577 66.1891C95.9577 66.1697 95.9563 66.1502 95.9549 66.1308L95.9521 66.0905C95.9493 66.0405 95.9466 65.9905 95.941 65.9419C95.9382 65.9169 95.9341 65.8919 95.9299 65.8669L95.9188 65.7961C95.9174 65.7808 95.9146 65.7655 95.9118 65.7502L95.8993 65.6988C95.8938 65.6766 95.8882 65.653 95.8827 65.6308C95.8688 65.5766 95.8549 65.5252 95.8382 65.4738L95.8202 65.4169C95.8188 65.4127 95.8132 65.3961 95.8118 65.3919C95.8021 65.3724 95.7952 65.3572 95.7896 65.3405C95.7632 65.2711 95.7368 65.2113 95.7105 65.1572C95.7035 65.1433 95.698 65.1294 95.6924 65.1169C95.6799 65.0961 95.6716 65.0836 95.6646 65.0697C95.641 65.0252 95.6146 64.9822 95.5882 64.9391C95.5799 64.9252 95.5716 64.9127 95.5646 64.8988C95.541 64.8613 95.5216 64.8336 95.5007 64.8058L93.7271 62.3877C93.7257 62.4211 93.7257 62.4544 93.7243 62.4877V62.5183C93.7243 62.5433 93.7229 62.5683 93.7216 62.5933C93.7146 62.7044 93.7021 62.8086 93.6854 62.9113L88.0396 98.296Z" fill="#E28FAA"/>
<path d="M112.096 83.3965L108.299 107.208H86.3027L87.7125 98.3743L90.1 83.3965H102.474H105.274H108.071H112.096Z" fill="#CC3C6C"/>
<path d="M108.298 107.52H86.3023C86.2106 107.52 86.1245 107.48 86.0648 107.41C86.0051 107.341 85.9801 107.249 85.994 107.159L89.7912 83.3479C89.8148 83.1965 89.9468 83.084 90.0995 83.084H112.095C112.187 83.084 112.273 83.1243 112.333 83.1937C112.393 83.2631 112.418 83.3548 112.404 83.4451L108.606 107.256C108.583 107.409 108.452 107.52 108.298 107.52ZM86.669 106.895H108.031L111.729 83.709H90.3662L86.669 106.895Z" fill="#E28FAA"/>
<path d="M90.5026 59.5865C92.3776 59.5865 93.6637 61.0518 93.3762 62.8615L87.7123 98.3754L86.3039 107.209H36.0831C34.2081 107.209 32.9206 105.743 33.2081 103.934L40.2803 59.5865L40.8026 56.3102C41.0914 54.5018 42.8456 53.0352 44.722 53.0352H57.7651C58.7095 53.0352 59.5053 53.406 60.0248 54.006C60.5373 54.5977 60.7831 55.4115 60.6401 56.3088C60.3512 58.1185 61.6373 59.5852 63.5123 59.5852H90.5026V59.5865ZM76.6734 88.1643L78.1928 78.6324H49.9123L48.3914 88.1643H76.6734Z" fill="#CC3C6C"/>
<path d="M86.3026 107.522H36.0832C35.0679 107.522 34.1762 107.132 33.5721 106.425C32.9873 105.738 32.7485 104.837 32.8998 103.886L40.4957 56.2621C40.8068 54.3107 42.704 52.7246 44.7234 52.7246H57.7665C58.7735 52.7246 59.6596 53.1079 60.2623 53.8038C60.8582 54.4913 61.1026 55.3996 60.9498 56.3607C60.8276 57.1302 61.0151 57.8538 61.4804 58.3982C61.9623 58.9635 62.6846 59.2746 63.5137 59.2746H90.5026C91.5179 59.2746 92.4096 59.6635 93.0123 60.3704C93.5971 61.0566 93.8359 61.9579 93.6846 62.9107L86.6123 107.258C86.5873 107.411 86.4568 107.522 86.3026 107.522ZM44.7234 53.3496C42.9971 53.3496 41.3776 54.701 41.1123 56.3607L33.5165 103.984C33.3943 104.752 33.5818 105.475 34.0471 106.019C34.5304 106.586 35.2526 106.897 36.0832 106.897H86.0359L93.0665 62.8135C93.1887 62.0454 93.0012 61.3218 92.5359 60.7774C92.054 60.2121 91.3304 59.901 90.5012 59.901H63.5137C62.4985 59.901 61.6082 59.5121 61.004 58.8052C60.4193 58.1191 60.1804 57.2163 60.3318 56.2635C60.4554 55.4871 60.2623 54.7593 59.7901 54.2135C59.3068 53.6566 58.5887 53.3496 57.7665 53.3496H44.7234ZM76.6734 88.4774H48.3915C48.2998 88.4774 48.2137 88.4371 48.154 88.3677C48.0943 88.2982 48.0693 88.2066 48.0832 88.1163L49.604 78.5843C49.6276 78.4329 49.7596 78.3204 49.9123 78.3204H78.1929C78.2846 78.3204 78.3707 78.3607 78.4304 78.4302C78.4901 78.4996 78.5151 78.5913 78.5012 78.6816L76.9804 88.2135C76.9568 88.3649 76.8262 88.4774 76.6734 88.4774ZM48.7582 87.8524H76.4068L77.8276 78.9454H50.179L48.7582 87.8524Z" fill="#E28FAA"/>
<path d="M112.096 83.3965L114.953 87.2909L111.156 111.102L108.299 107.208L112.096 83.3965Z" fill="#E28FAA"/>
<path d="M111.155 111.415C111.057 111.415 110.964 111.369 110.904 111.287L108.047 107.393C107.997 107.326 107.978 107.241 107.99 107.158L111.787 83.3468C111.807 83.2218 111.9 83.1218 112.022 83.0926C112.144 83.0635 112.273 83.1093 112.347 83.2121L115.204 87.1065C115.254 87.1732 115.273 87.2579 115.261 87.3412L111.464 111.152C111.444 111.277 111.351 111.377 111.229 111.407C111.204 111.412 111.18 111.415 111.155 111.415ZM108.628 107.129L110.965 110.315L114.625 87.3718L112.287 84.1857L108.628 107.129Z" fill="#E28FAA"/>
<path d="M111.155 111.102L108.298 107.207H86.302H36.0825C35.0533 107.207 34.2006 106.766 33.6895 106.068L36.5464 109.963C37.0589 110.66 37.9103 111.102 38.9408 111.102H89.1603H111.155Z" fill="#CC3C6C"/>
<path d="M111.155 111.415H38.9401C37.8498 111.415 36.8845 110.952 36.2942 110.148L33.4373 106.254C33.3359 106.115 33.3651 105.919 33.504 105.816C33.6428 105.715 33.8387 105.744 33.9415 105.883C34.4137 106.526 35.1942 106.895 36.0831 106.895H108.298C108.398 106.895 108.491 106.943 108.55 107.023L111.407 110.918C111.476 111.012 111.487 111.138 111.433 111.244C111.382 111.35 111.273 111.415 111.155 111.415ZM35.029 107.366L36.7984 109.779C37.2706 110.422 38.0512 110.791 38.9401 110.791H110.539L108.14 107.522H36.0831C35.7137 107.52 35.3595 107.468 35.029 107.366Z" fill="#E28FAA"/>
<path d="M118.897 66.6861C120.038 66.6861 120.963 65.7608 120.963 64.6194C120.963 63.478 120.038 62.5527 118.897 62.5527C117.755 62.5527 116.83 63.478 116.83 64.6194C116.83 65.7608 117.755 66.6861 118.897 66.6861Z" fill="#E28FAA"/>
<path d="M34.4573 73.9966C35.5987 73.9966 36.524 73.0713 36.524 71.9299C36.524 70.7886 35.5987 69.8633 34.4573 69.8633C33.3159 69.8633 32.3906 70.7886 32.3906 71.9299C32.3906 73.0713 33.3159 73.9966 34.4573 73.9966Z" fill="#E28FAA"/>
<path d="M35.4915 75.6665C35.8934 75.6665 36.2192 75.3407 36.2192 74.9387C36.2192 74.5368 35.8934 74.2109 35.4915 74.2109C35.0895 74.2109 34.7637 74.5368 34.7637 74.9387C34.7637 75.3407 35.0895 75.6665 35.4915 75.6665Z" fill="#E28FAA"/>
<path d="M52.2157 49.3494C54.1794 49.3494 55.7713 47.7575 55.7713 45.7938C55.7713 43.8302 54.1794 42.2383 52.2157 42.2383C50.252 42.2383 48.6602 43.8302 48.6602 45.7938C48.6602 47.7575 50.252 49.3494 52.2157 49.3494Z" fill="#EBB3C6"/>
<path d="M48.6618 44.0385C49.5969 44.0385 50.3549 43.2804 50.3549 42.3454C50.3549 41.4104 49.5969 40.6523 48.6618 40.6523C47.7268 40.6523 46.9688 41.4104 46.9688 42.3454C46.9688 43.2804 47.7268 44.0385 48.6618 44.0385Z" fill="#E28FAA"/>
<path d="M106.01 31.9121C110.952 31.9121 114.339 35.7732 113.579 40.5399C112.82 45.3038 108.2 49.1663 103.259 49.1663C98.3182 49.1663 94.9307 45.3052 95.6904 40.5399C96.4502 35.7732 101.07 31.9121 106.01 31.9121ZM106.489 35.3677C106.625 34.7954 106.221 34.3024 105.635 34.3024C105.609 34.3024 105.582 34.3038 105.556 34.3052C104.982 34.3427 104.477 34.8191 104.427 35.3677L103.668 44.0038C103.652 44.1996 103.786 44.3593 103.992 44.3732C104.002 44.3746 104.013 44.3746 104.022 44.3746C104.238 44.3746 104.443 44.2135 104.492 44.0038L106.489 35.3677ZM103.639 46.7746C104.167 46.7746 104.659 46.3635 104.74 45.8538C104.821 45.3468 104.46 44.9329 103.934 44.9329C103.407 44.9329 102.913 45.3454 102.832 45.8538C102.75 46.3635 103.113 46.7746 103.639 46.7746Z" fill="#CC3C6C"/>
<path d="M103.259 49.4774C100.737 49.4774 98.527 48.5149 97.0367 46.7691C95.5936 45.0774 95.0061 42.8482 95.3825 40.4899C96.1645 35.5871 100.933 31.5996 106.01 31.5996C108.533 31.5996 110.744 32.5621 112.234 34.3093C113.677 36.001 114.264 38.2316 113.888 40.5899C113.106 45.4899 108.338 49.4774 103.259 49.4774ZM106.01 32.2246C101.226 32.2246 96.7353 35.9774 95.9992 40.5885C95.652 42.7621 96.1895 44.8135 97.5117 46.3635C98.8811 47.9691 100.923 48.8524 103.259 48.8524C108.044 48.8524 112.535 45.101 113.271 40.4899C113.619 38.3149 113.081 36.2635 111.759 34.7135C110.388 33.1079 108.346 32.2246 106.01 32.2246ZM103.639 47.0871C103.292 47.0871 102.973 46.9454 102.763 46.6996C102.555 46.4566 102.47 46.1385 102.523 45.8052C102.619 45.201 103.141 44.7163 103.749 44.6343C103.658 44.5954 103.576 44.5371 103.51 44.4607C103.396 44.3288 103.344 44.1566 103.359 43.9788L104.117 35.3427C104.18 34.6343 104.803 34.0427 105.537 33.9954C105.569 33.9927 105.602 33.9913 105.635 33.9913C106.014 33.9913 106.36 34.1524 106.583 34.4343C106.802 34.7121 106.878 35.0788 106.792 35.4399L104.798 44.076C104.734 44.3566 104.506 44.5816 104.234 44.6593C104.46 44.7163 104.662 44.8371 104.809 45.0093C105.017 45.2538 105.102 45.5704 105.049 45.9038C104.944 46.5677 104.324 47.0871 103.639 47.0871ZM103.933 45.2454C103.56 45.2454 103.196 45.5468 103.139 45.9024C103.116 46.0524 103.151 46.1913 103.238 46.2927C103.331 46.401 103.473 46.4607 103.639 46.4607C104.012 46.4607 104.376 46.1593 104.433 45.8038C104.456 45.6538 104.421 45.5149 104.334 45.4121C104.241 45.3052 104.099 45.2454 103.933 45.2454ZM105.635 34.6149C105.617 34.6149 105.598 34.6163 105.58 34.6177C105.158 34.6454 104.774 35.0024 104.739 35.3968L103.981 44.0329C103.98 44.0427 103.981 44.051 103.984 44.0538C103.987 44.0579 103.998 44.0621 104.014 44.0635C104.014 44.0635 104.014 44.0635 104.016 44.0635C104.096 44.0635 104.174 44.0024 104.189 43.9357L106.184 35.2996V35.2982C106.226 35.1204 106.194 34.9524 106.092 34.8232C105.988 34.6871 105.826 34.6149 105.635 34.6149Z" fill="#E28FAA"/>
<path d="M105.635 34.3027C106.222 34.3027 106.624 34.7958 106.49 35.368L104.495 44.0041C104.447 44.2138 104.241 44.375 104.026 44.375C104.016 44.375 104.005 44.375 103.995 44.3736C103.79 44.3597 103.653 44.2 103.672 44.0041L104.43 35.368C104.478 34.818 104.984 34.343 105.559 34.3055C105.584 34.3027 105.61 34.3027 105.635 34.3027Z" fill="#E28FAA"/>
<path d="M104.025 44.6875C104.007 44.6875 103.989 44.6875 103.971 44.6861C103.789 44.6736 103.623 44.5944 103.509 44.4597C103.396 44.3277 103.343 44.1555 103.358 43.9777L104.116 35.3416C104.179 34.6333 104.802 34.0416 105.536 33.9944C105.568 33.9916 105.601 33.9902 105.634 33.9902C106.014 33.9902 106.359 34.1513 106.582 34.4333C106.801 34.7111 106.877 35.0777 106.791 35.4402L104.797 44.075C104.718 44.4236 104.384 44.6875 104.025 44.6875ZM105.634 34.6152C105.616 34.6152 105.597 34.6166 105.579 34.618C105.157 34.6458 104.773 35.0027 104.739 35.3972L103.98 44.0333C103.979 44.043 103.98 44.0513 103.983 44.0541C103.986 44.0583 103.997 44.0625 104.014 44.0638C104.014 44.0638 104.014 44.0638 104.015 44.0638C104.096 44.0638 104.173 44.0027 104.189 43.9361L106.183 35.3C106.226 35.1208 106.193 34.9513 106.091 34.8236C105.987 34.6875 105.825 34.6152 105.634 34.6152Z" fill="#E28FAA"/>
<path d="M103.933 44.9316C104.461 44.9316 104.822 45.3441 104.74 45.8525C104.66 46.3608 104.167 46.7733 103.639 46.7733C103.112 46.7733 102.75 46.3622 102.832 45.8525C102.914 45.3455 103.408 44.9316 103.933 44.9316Z" fill="#E28FAA"/>
<path d="M103.64 47.0864C103.293 47.0864 102.973 46.9447 102.763 46.6989C102.555 46.4558 102.47 46.1378 102.523 45.8044C102.629 45.1405 103.248 44.6211 103.933 44.6211C104.28 44.6211 104.599 44.7628 104.809 45.0086C105.018 45.253 105.102 45.5697 105.049 45.9044C104.944 46.5669 104.324 47.0864 103.64 47.0864ZM103.933 45.2447C103.561 45.2447 103.197 45.5461 103.14 45.9016C103.116 46.0516 103.151 46.1905 103.238 46.2919C103.331 46.4003 103.473 46.46 103.64 46.46C104.012 46.46 104.376 46.1586 104.433 45.803C104.456 45.653 104.422 45.5141 104.334 45.4114C104.241 45.3044 104.099 45.2447 103.933 45.2447Z" fill="#E28FAA"/>
</g>
</svg>
